solid colgante
facet normal -0.881015645005604 -0.473087130722618 -4.30980538009349e-018
   outer loop
      vertex -93.0455432920033 105.827022466812 -4.8016724435904
      vertex -95.1555300511513 109.756386055132 -3.80167244359041
      vertex -95.1555300511513 109.756386055132 -4.80167244359041
   endloop
endfacet
facet normal -0.881015645005604 -0.473087130722618 -4.30980538009349e-018
   outer loop
      vertex -95.1555300511513 109.756386055132 -3.80167244359041
      vertex -93.0455432920033 105.827022466812 -4.8016724435904
      vertex -93.0455432920033 105.827022466812 -3.8016724435904
   endloop
endfacet
facet normal -0.470627802499686 0.882331837527309 -1.27384330823688e-017
   outer loop
      vertex -80.8486611855437 123.670587544316 -4.8016724435904
      vertex -85.5445626904284 121.165836256872 -3.8016724435904
      vertex -80.8486611855437 123.670587544316 -3.8016724435904
   endloop
endfacet
facet normal -0.470627802499686 0.882331837527309 -1.27384330823688e-017
   outer loop
      vertex -85.5445626904284 121.165836256872 -3.8016724435904
      vertex -80.8486611855437 123.670587544316 -4.8016724435904
      vertex -85.5445626904284 121.165836256872 -4.8016724435904
   endloop
endfacet
facet normal -0.633449464448403 -0.77378406289483 -1.31571181160232e-016
   outer loop
      vertex -89.6627567653318 101.718248285806 -4.8016724435904
      vertex -85.5445626904284 98.346935853391 -3.8016724435904
      vertex -89.6627567653318 101.718248285806 -3.8016724435904
   endloop
endfacet
facet normal -0.633449464448403 -0.77378406289483 -1.31571181160232e-016
   outer loop
      vertex -85.5445626904284 98.346935853391 -3.8016724435904
      vertex -89.6627567653318 101.718248285806 -4.8016724435904
      vertex -85.5445626904284 98.346935853391 -4.8016724435904
   endloop
endfacet
facet normal -0.289784148688431 0.957092026489053 5.31292802246694e-017
   outer loop
      vertex -75.7548748158957 125.212861960856 -4.8016724435904
      vertex -80.8486611855437 123.670587544316 -3.8016724435904
      vertex -75.7548748158957 125.212861960856 -3.8016724435904
   endloop
endfacet
facet normal -0.289784148688431 0.957092026489053 5.31292802246694e-017
   outer loop
      vertex -80.8486611855437 123.670587544316 -3.8016724435904
      vertex -75.7548748158957 125.212861960856 -4.8016724435904
      vertex -80.8486611855437 123.670587544316 -4.8016724435904
   endloop
endfacet
facet normal -0.772014121109728 0.635605378208188 1.24202328679244e-016
   outer loop
      vertex -93.0455432920033 113.685749643451 -4.8016724435904
      vertex -89.6627567653318 117.794523824457 -3.8016724435904
      vertex -89.6627567653318 117.794523824457 -4.8016724435904
   endloop
endfacet
facet normal -0.772014121109728 0.635605378208188 1.24202328679244e-016
   outer loop
      vertex -89.6627567653318 117.794523824457 -3.8016724435904
      vertex -93.0455432920033 113.685749643451 -4.8016724435904
      vertex -93.0455432920033 113.685749643451 -3.8016724435904
   endloop
endfacet
facet normal -0.289784148688431 -0.957092026489052 -5.31292802246648e-017
   outer loop
      vertex -80.8486611855437 95.8421845659476 -4.8016724435904
      vertex -75.7548748158957 94.2999101494069 -3.8016724435904
      vertex -80.8486611855437 95.8421845659476 -3.8016724435904
   endloop
endfacet
facet normal -0.289784148688431 -0.957092026489052 -5.31292802246648e-017
   outer loop
      vertex -75.7548748158957 94.2999101494069 -3.8016724435904
      vertex -80.8486611855437 95.8421845659476 -4.8016724435904
      vertex -75.7548748158957 94.2999101494069 -4.8016724435904
   endloop
endfacet
facet normal -0.0978436418187171 -0.995201799513873 -5.52447975984029e-017
   outer loop
      vertex -75.7548748158957 94.2999101494069 -4.8016724435904
      vertex -70.4582625559346 93.7791717091535 -3.8016724435904
      vertex -75.7548748158957 94.2999101494069 -3.8016724435904
   endloop
endfacet
facet normal -0.0978436418187171 -0.995201799513873 -5.52447975984029e-017
   outer loop
      vertex -70.4582625559346 93.7791717091535 -3.8016724435904
      vertex -75.7548748158957 94.2999101494069 -4.8016724435904
      vertex -70.4582625559346 93.7791717091535 -4.8016724435904
   endloop
endfacet
facet normal -0.470627802499687 -0.882331837527308 -1.14818567732449e-016
   outer loop
      vertex -85.5445626904284 98.346935853391 -4.8016724435904
      vertex -80.8486611855437 95.8421845659476 -3.8016724435904
      vertex -85.5445626904284 98.346935853391 -3.8016724435904
   endloop
endfacet
facet normal -0.470627802499687 -0.882331837527308 -1.14818567732449e-016
   outer loop
      vertex -80.8486611855437 95.8421845659476 -3.8016724435904
      vertex -85.5445626904284 98.346935853391 -4.8016724435904
      vertex -80.8486611855437 95.8421845659476 -4.8016724435904
   endloop
endfacet
facet normal -0.881015645005604 0.473087130722619 -1.34122064690329e-017
   outer loop
      vertex -95.1555300511513 109.756386055132 -4.80167244359041
      vertex -93.0455432920033 113.685749643451 -3.8016724435904
      vertex -93.0455432920033 113.685749643451 -4.8016724435904
   endloop
endfacet
facet normal -0.881015645005604 0.473087130722619 -1.34122064690329e-017
   outer loop
      vertex -93.0455432920033 113.685749643451 -3.8016724435904
      vertex -95.1555300511513 109.756386055132 -4.80167244359041
      vertex -95.1555300511513 109.756386055132 -3.80167244359041
   endloop
endfacet
facet normal 0.772014121109728 0.635605378208188 3.52831862731156e-017
   outer loop
      vertex -46.23092275376 114.785742661163 -3.8016724435904
      vertex -49.8593329027079 119.192854319126 -4.8016724435904
      vertex -49.8593329027079 119.192854319126 -3.8016724435904
   endloop
endfacet
facet normal 0.772014121109728 0.635605378208188 3.52831862731156e-017
   outer loop
      vertex -49.8593329027079 119.192854319126 -4.8016724435904
      vertex -46.23092275376 114.785742661163 -3.8016724435904
      vertex -46.23092275376 114.785742661163 -4.8016724435904
   endloop
endfacet
facet normal -0.633449464448403 0.773784062894831 4.29536441356999e-017
   outer loop
      vertex -85.5445626904284 121.165836256872 -4.8016724435904
      vertex -89.6627567653318 117.794523824457 -3.8016724435904
      vertex -85.5445626904284 121.165836256872 -3.8016724435904
   endloop
endfacet
facet normal -0.633449464448403 0.773784062894831 4.29536441356999e-017
   outer loop
      vertex -89.6627567653318 117.794523824457 -3.8016724435904
      vertex -85.5445626904284 121.165836256872 -4.8016724435904
      vertex -89.6627567653318 117.794523824457 -4.8016724435904
   endloop
endfacet
facet normal 7.14997283629501e-033 5.55111512312578e-017 -1.0
   outer loop
      vertex -94.6856023581093 114.785742661163 -4.8016724435904
      vertex -95.1555300511513 109.756386055132 -4.80167244359041
      vertex -97.3862625559347 109.756386055132 -4.80167244359041
   endloop
endfacet
facet normal 7.14997283629501e-033 5.55111512312578e-017 -1.0
   outer loop
      vertex -95.1555300511513 109.756386055132 -4.80167244359041
      vertex -94.6856023581093 114.785742661163 -4.8016724435904
      vertex -93.0455432920033 113.685749643451 -4.8016724435904
   endloop
endfacet
facet normal 7.14997283629501e-033 5.55111512312578e-017 -1.0
   outer loop
      vertex -93.0455432920033 113.685749643451 -4.8016724435904
      vertex -94.6856023581093 114.785742661163 -4.8016724435904
      vertex -91.0571922091614 119.192854319126 -4.8016724435904
   endloop
endfacet
facet normal 7.14997283629501e-033 5.55111512312578e-017 -1.0
   outer loop
      vertex -93.0455432920033 113.685749643451 -4.8016724435904
      vertex -91.0571922091614 119.192854319126 -4.8016724435904
      vertex -89.6627567653318 117.794523824457 -4.8016724435904
   endloop
endfacet
facet normal 7.14997283629501e-033 5.55111512312578e-017 -1.0
   outer loop
      vertex -89.6627567653318 117.794523824457 -4.8016724435904
      vertex -91.0571922091614 119.192854319126 -4.8016724435904
      vertex -86.639976680217 122.808957241555 -4.8016724435904
   endloop
endfacet
facet normal 7.14997283629501e-033 5.55111512312578e-017 -1.0
   outer loop
      vertex -89.6627567653318 117.794523824457 -4.8016724435904
      vertex -86.639976680217 122.808957241555 -4.8016724435904
      vertex -85.5445626904284 121.165836256872 -4.8016724435904
   endloop
endfacet
facet normal 7.14997283629501e-033 5.55111512312578e-017 -1.0
   outer loop
      vertex -85.5445626904284 121.165836256872 -4.8016724435904
      vertex -86.639976680217 122.808957241555 -4.8016724435904
      vertex -81.6031064714578 125.495578144262 -4.8016724435904
   endloop
endfacet
facet normal 7.14997283629501e-033 5.55111512312578e-017 -1.0
   outer loop
      vertex -85.5445626904284 121.165836256872 -4.8016724435904
      vertex -81.6031064714578 125.495578144262 -4.8016724435904
      vertex -80.8486611855437 123.670587544316 -4.8016724435904
   endloop
endfacet
facet normal 7.14997283629501e-033 5.55111512312578e-017 -1.0
   outer loop
      vertex -80.8486611855437 123.670587544316 -4.8016724435904
      vertex -81.6031064714578 125.495578144262 -4.8016724435904
      vertex -76.1394610375885 127.149836874843 -4.8016724435904
   endloop
endfacet
facet normal 7.14997283629501e-033 5.55111512312578e-017 -1.0
   outer loop
      vertex -80.8486611855437 123.670587544316 -4.8016724435904
      vertex -76.1394610375885 127.149836874843 -4.8016724435904
      vertex -75.7548748158957 125.212861960856 -4.8016724435904
   endloop
endfacet
facet normal 7.14997283629501e-033 5.55111512312578e-017 -1.0
   outer loop
      vertex -75.7548748158957 125.212861960856 -4.8016724435904
      vertex -76.1394610375885 127.149836874843 -4.8016724435904
      vertex -70.4582625559347 127.708386055132 -4.8016724435904
   endloop
endfacet
facet normal 7.14997283629501e-033 5.55111512312578e-017 -1.0
   outer loop
      vertex -75.7548748158957 125.212861960856 -4.8016724435904
      vertex -70.4582625559347 127.708386055132 -4.8016724435904
      vertex -70.4582625559346 125.73360040111 -4.8016724435904
   endloop
endfacet
facet normal 7.14997283629501e-033 5.55111512312578e-017 -1.0
   outer loop
      vertex -70.4582625559346 125.73360040111 -4.8016724435904
      vertex -70.4582625559347 127.708386055132 -4.8016724435904
      vertex -64.7770640742808 127.149836874843 -4.8016724435904
   endloop
endfacet
facet normal 7.14997283629501e-033 5.55111512312578e-017 -1.0
   outer loop
      vertex -70.4582625559346 125.73360040111 -4.8016724435904
      vertex -64.7770640742808 127.149836874843 -4.8016724435904
      vertex -65.1616502959736 125.212861960856 -4.8016724435904
   endloop
endfacet
facet normal 7.14997283629501e-033 5.55111512312578e-017 -1.0
   outer loop
      vertex -65.1616502959736 125.212861960856 -4.8016724435904
      vertex -64.7770640742808 127.149836874843 -4.8016724435904
      vertex -60.0678639263255 123.670587544316 -4.8016724435904
   endloop
endfacet
facet normal 7.14997283629501e-033 5.55111512312578e-017 -1.0
   outer loop
      vertex -60.0678639263255 123.670587544316 -4.8016724435904
      vertex -64.7770640742808 127.149836874843 -4.8016724435904
      vertex -59.3134186404114 125.495578144262 -4.8016724435904
   endloop
endfacet
facet normal 7.14997283629501e-033 5.55111512312578e-017 -1.0
   outer loop
      vertex -60.0678639263255 123.670587544316 -4.8016724435904
      vertex -59.3134186404114 125.495578144262 -4.8016724435904
      vertex -55.3719624214409 121.165836256872 -4.8016724435904
   endloop
endfacet
facet normal 7.14997283629501e-033 5.55111512312578e-017 -1.0
   outer loop
      vertex -55.3719624214409 121.165836256872 -4.8016724435904
      vertex -59.3134186404114 125.495578144262 -4.8016724435904
      vertex -54.2765484316523 122.808957241555 -4.8016724435904
   endloop
endfacet
facet normal 7.14997283629501e-033 5.55111512312578e-017 -1.0
   outer loop
      vertex -55.3719624214409 121.165836256872 -4.8016724435904
      vertex -54.2765484316523 122.808957241555 -4.8016724435904
      vertex -51.2537683465375 117.794523824457 -4.8016724435904
   endloop
endfacet
facet normal 7.14997283629501e-033 5.55111512312578e-017 -1.0
   outer loop
      vertex -51.2537683465375 117.794523824457 -4.8016724435904
      vertex -54.2765484316523 122.808957241555 -4.8016724435904
      vertex -49.8593329027079 119.192854319126 -4.8016724435904
   endloop
endfacet
facet normal 7.14997283629501e-033 5.55111512312578e-017 -1.0
   outer loop
      vertex -51.2537683465375 117.794523824457 -4.8016724435904
      vertex -49.8593329027079 119.192854319126 -4.8016724435904
      vertex -47.8709818198661 113.685749643451 -4.8016724435904
   endloop
endfacet
facet normal 7.14997283629501e-033 5.55111512312578e-017 -1.0
   outer loop
      vertex -47.8709818198661 113.685749643451 -4.8016724435904
      vertex -49.8593329027079 119.192854319126 -4.8016724435904
      vertex -46.23092275376 114.785742661163 -4.8016724435904
   endloop
endfacet
facet normal 7.14997283629501e-033 5.55111512312578e-017 -1.0
   outer loop
      vertex -47.8709818198661 113.685749643451 -4.8016724435904
      vertex -46.23092275376 114.785742661163 -4.8016724435904
      vertex -45.760995060718 109.756386055132 -4.80167244359041
   endloop
endfacet
facet normal 7.14997283629501e-033 5.55111512312578e-017 -1.0
   outer loop
      vertex -45.760995060718 109.756386055132 -4.80167244359041
      vertex -46.23092275376 114.785742661163 -4.8016724435904
      vertex -43.5302625559346 109.756386055132 -4.80167244359041
   endloop
endfacet
facet normal 7.14997283629501e-033 5.55111512312578e-017 -1.0
   outer loop
      vertex -95.1555300511513 109.756386055132 -4.80167244359041
      vertex -94.6856023581093 104.727029449101 -4.8016724435904
      vertex -97.3862625559347 109.756386055132 -4.80167244359041
   endloop
endfacet
facet normal 7.14997283629501e-033 5.55111512312578e-017 -1.0
   outer loop
      vertex -94.6856023581093 104.727029449101 -4.8016724435904
      vertex -95.1555300511513 109.756386055132 -4.80167244359041
      vertex -93.0455432920033 105.827022466812 -4.8016724435904
   endloop
endfacet
facet normal 7.14997283629501e-033 5.55111512312578e-017 -1.0
   outer loop
      vertex -94.6856023581093 104.727029449101 -4.8016724435904
      vertex -93.0455432920033 105.827022466812 -4.8016724435904
      vertex -91.0571922091614 100.319917791137 -4.8016724435904
   endloop
endfacet
facet normal 7.14997283629501e-033 5.55111512312578e-017 -1.0
   outer loop
      vertex -91.0571922091614 100.319917791137 -4.8016724435904
      vertex -93.0455432920033 105.827022466812 -4.8016724435904
      vertex -89.6627567653318 101.718248285806 -4.8016724435904
   endloop
endfacet
facet normal 7.14997283629501e-033 5.55111512312578e-017 -1.0
   outer loop
      vertex -91.0571922091614 100.319917791137 -4.8016724435904
      vertex -89.6627567653318 101.718248285806 -4.8016724435904
      vertex -86.639976680217 96.7038148687081 -4.8016724435904
   endloop
endfacet
facet normal 7.14997283629501e-033 5.55111512312578e-017 -1.0
   outer loop
      vertex -86.639976680217 96.7038148687081 -4.8016724435904
      vertex -89.6627567653318 101.718248285806 -4.8016724435904
      vertex -85.5445626904284 98.346935853391 -4.8016724435904
   endloop
endfacet
facet normal 7.14997283629501e-033 5.55111512312578e-017 -1.0
   outer loop
      vertex -86.639976680217 96.7038148687081 -4.8016724435904
      vertex -85.5445626904284 98.346935853391 -4.8016724435904
      vertex -81.6031064714579 94.0171939660014 -4.8016724435904
   endloop
endfacet
facet normal 7.14997283629501e-033 5.55111512312578e-017 -1.0
   outer loop
      vertex -81.6031064714579 94.0171939660014 -4.8016724435904
      vertex -85.5445626904284 98.346935853391 -4.8016724435904
      vertex -80.8486611855437 95.8421845659476 -4.8016724435904
   endloop
endfacet
facet normal 7.14997283629501e-033 5.55111512312578e-017 -1.0
   outer loop
      vertex -81.6031064714579 94.0171939660014 -4.8016724435904
      vertex -80.8486611855437 95.8421845659476 -4.8016724435904
      vertex -76.1394610375885 92.3629352354201 -4.8016724435904
   endloop
endfacet
facet normal 7.14997283629501e-033 5.55111512312578e-017 -1.0
   outer loop
      vertex -76.1394610375885 92.3629352354201 -4.8016724435904
      vertex -80.8486611855437 95.8421845659476 -4.8016724435904
      vertex -75.7548748158957 94.2999101494069 -4.8016724435904
   endloop
endfacet
facet normal 7.14997283629501e-033 5.55111512312578e-017 -1.0
   outer loop
      vertex -76.1394610375885 92.3629352354201 -4.8016724435904
      vertex -75.7548748158957 94.2999101494069 -4.8016724435904
      vertex -70.4582625559346 91.8043860551317 -4.8016724435904
   endloop
endfacet
facet normal 7.14997283629501e-033 5.55111512312578e-017 -1.0
   outer loop
      vertex -70.4582625559346 91.8043860551317 -4.8016724435904
      vertex -75.7548748158957 94.2999101494069 -4.8016724435904
      vertex -70.4582625559346 93.7791717091535 -4.8016724435904
   endloop
endfacet
facet normal 7.14997283629501e-033 5.55111512312578e-017 -1.0
   outer loop
      vertex -70.4582625559346 91.8043860551317 -4.8016724435904
      vertex -70.4582625559346 93.7791717091535 -4.8016724435904
      vertex -64.7770640742808 92.3629352354201 -4.8016724435904
   endloop
endfacet
facet normal 7.14997283629501e-033 5.55111512312578e-017 -1.0
   outer loop
      vertex -64.7770640742808 92.3629352354201 -4.8016724435904
      vertex -70.4582625559346 93.7791717091535 -4.8016724435904
      vertex -65.1616502959736 94.2999101494069 -4.8016724435904
   endloop
endfacet
facet normal 7.14997283629501e-033 5.55111512312578e-017 -1.0
   outer loop
      vertex -64.7770640742808 92.3629352354201 -4.8016724435904
      vertex -65.1616502959736 94.2999101494069 -4.8016724435904
      vertex -60.0678639263255 95.8421845659477 -4.8016724435904
   endloop
endfacet
facet normal 7.14997283629501e-033 5.55111512312578e-017 -1.0
   outer loop
      vertex -64.7770640742808 92.3629352354201 -4.8016724435904
      vertex -60.0678639263255 95.8421845659477 -4.8016724435904
      vertex -59.3134186404114 94.0171939660014 -4.8016724435904
   endloop
endfacet
facet normal 7.14997283629501e-033 5.55111512312578e-017 -1.0
   outer loop
      vertex -59.3134186404114 94.0171939660014 -4.8016724435904
      vertex -60.0678639263255 95.8421845659477 -4.8016724435904
      vertex -55.3719624214409 98.346935853391 -4.8016724435904
   endloop
endfacet
facet normal 7.14997283629501e-033 5.55111512312578e-017 -1.0
   outer loop
      vertex -59.3134186404114 94.0171939660014 -4.8016724435904
      vertex -55.3719624214409 98.346935853391 -4.8016724435904
      vertex -54.2765484316523 96.7038148687081 -4.8016724435904
   endloop
endfacet
facet normal 7.14997283629501e-033 5.55111512312578e-017 -1.0
   outer loop
      vertex -54.2765484316523 96.7038148687081 -4.8016724435904
      vertex -55.3719624214409 98.346935853391 -4.8016724435904
      vertex -51.2537683465374 101.718248285806 -4.8016724435904
   endloop
endfacet
facet normal 7.14997283629501e-033 5.55111512312578e-017 -1.0
   outer loop
      vertex -54.2765484316523 96.7038148687081 -4.8016724435904
      vertex -51.2537683465374 101.718248285806 -4.8016724435904
      vertex -49.8593329027079 100.319917791137 -4.8016724435904
   endloop
endfacet
facet normal 7.14997283629501e-033 5.55111512312578e-017 -1.0
   outer loop
      vertex -49.8593329027079 100.319917791137 -4.8016724435904
      vertex -51.2537683465374 101.718248285806 -4.8016724435904
      vertex -47.8709818198661 105.827022466812 -4.8016724435904
   endloop
endfacet
facet normal 7.14997283629501e-033 5.55111512312578e-017 -1.0
   outer loop
      vertex -49.8593329027079 100.319917791137 -4.8016724435904
      vertex -47.8709818198661 105.827022466812 -4.8016724435904
      vertex -46.23092275376 104.727029449101 -4.8016724435904
   endloop
endfacet
facet normal 7.14997283629501e-033 5.55111512312578e-017 -1.0
   outer loop
      vertex -46.23092275376 104.727029449101 -4.8016724435904
      vertex -47.8709818198661 105.827022466812 -4.8016724435904
      vertex -45.760995060718 109.756386055132 -4.80167244359041
   endloop
endfacet
facet normal 7.14997283629501e-033 5.55111512312578e-017 -1.0
   outer loop
      vertex -46.23092275376 104.727029449101 -4.8016724435904
      vertex -45.760995060718 109.756386055132 -4.80167244359041
      vertex -43.5302625559346 109.756386055132 -4.80167244359041
   endloop
endfacet
facet normal -0.772014121109728 -0.635605378208188 5.3635956133001e-017
   outer loop
      vertex -89.6627567653318 101.718248285806 -4.8016724435904
      vertex -93.0455432920033 105.827022466812 -3.8016724435904
      vertex -93.0455432920033 105.827022466812 -4.8016724435904
   endloop
endfacet
facet normal -0.772014121109728 -0.635605378208188 5.3635956133001e-017
   outer loop
      vertex -93.0455432920033 105.827022466812 -3.8016724435904
      vertex -89.6627567653318 101.718248285806 -4.8016724435904
      vertex -89.6627567653318 101.718248285806 -3.8016724435904
   endloop
endfacet
facet normal 0.772014121109727 0.635605378208189 1.24202328679232e-016
   outer loop
      vertex -47.8709818198661 113.685749643451 -3.8016724435904
      vertex -51.2537683465375 117.794523824457 -4.8016724435904
      vertex -51.2537683465375 117.794523824457 -3.8016724435904
   endloop
endfacet
facet normal 0.772014121109727 0.635605378208189 1.24202328679232e-016
   outer loop
      vertex -51.2537683465375 117.794523824457 -4.8016724435904
      vertex -47.8709818198661 113.685749643451 -3.8016724435904
      vertex -47.8709818198661 113.685749643451 -4.8016724435904
   endloop
endfacet
facet normal 0.289784148688426 0.957092026489054 -1.38177635834457e-017
   outer loop
      vertex -60.0678639263255 123.670587544316 -4.8016724435904
      vertex -65.1616502959736 125.212861960856 -3.8016724435904
      vertex -60.0678639263255 123.670587544316 -3.8016724435904
   endloop
endfacet
facet normal 0.289784148688426 0.957092026489054 -1.38177635834457e-017
   outer loop
      vertex -65.1616502959736 125.212861960856 -3.8016724435904
      vertex -60.0678639263255 123.670587544316 -4.8016724435904
      vertex -65.1616502959736 125.212861960856 -4.8016724435904
   endloop
endfacet
facet normal -0.0978436418187259 0.995201799513872 5.52447975984345e-017
   outer loop
      vertex -70.4582625559346 125.73360040111 -4.8016724435904
      vertex -75.7548748158957 125.212861960856 -3.8016724435904
      vertex -70.4582625559346 125.73360040111 -3.8016724435904
   endloop
endfacet
facet normal -0.0978436418187259 0.995201799513872 5.52447975984345e-017
   outer loop
      vertex -75.7548748158957 125.212861960856 -3.8016724435904
      vertex -70.4582625559346 125.73360040111 -4.8016724435904
      vertex -75.7548748158957 125.212861960856 -4.8016724435904
   endloop
endfacet
facet normal 0.772014121109725 -0.635605378208192 -3.52831862731179e-017
   outer loop
      vertex -51.2537683465374 101.718248285806 -3.8016724435904
      vertex -47.8709818198661 105.827022466812 -4.8016724435904
      vertex -47.8709818198661 105.827022466812 -3.8016724435904
   endloop
endfacet
facet normal 0.772014121109725 -0.635605378208192 -3.52831862731179e-017
   outer loop
      vertex -47.8709818198661 105.827022466812 -4.8016724435904
      vertex -51.2537683465374 101.718248285806 -3.8016724435904
      vertex -51.2537683465374 101.718248285806 -4.8016724435904
   endloop
endfacet
facet normal 0.633449464448405 -0.773784062894829 -4.29536441356819e-017
   outer loop
      vertex -55.3719624214409 98.346935853391 -4.8016724435904
      vertex -51.2537683465374 101.718248285806 -3.8016724435904
      vertex -55.3719624214409 98.346935853391 -3.8016724435904
   endloop
endfacet
facet normal 0.633449464448405 -0.773784062894829 -4.29536441356819e-017
   outer loop
      vertex -51.2537683465374 101.718248285806 -3.8016724435904
      vertex -55.3719624214409 98.346935853391 -4.8016724435904
      vertex -51.2537683465374 101.718248285806 -4.8016724435904
   endloop
endfacet
facet normal 0.289784148688439 -0.95709202648905 -5.31292802246951e-017
   outer loop
      vertex -65.1616502959736 94.2999101494069 -4.8016724435904
      vertex -60.0678639263255 95.8421845659477 -3.8016724435904
      vertex -65.1616502959736 94.2999101494069 -3.8016724435904
   endloop
endfacet
facet normal 0.289784148688439 -0.95709202648905 -5.31292802246951e-017
   outer loop
      vertex -60.0678639263255 95.8421845659477 -3.8016724435904
      vertex -65.1616502959736 94.2999101494069 -4.8016724435904
      vertex -60.0678639263255 95.8421845659477 -4.8016724435904
   endloop
endfacet
facet normal 0.0978436418187147 -0.995201799513873 -5.5244797598433e-017
   outer loop
      vertex -70.4582625559346 93.7791717091535 -4.8016724435904
      vertex -65.1616502959736 94.2999101494069 -3.8016724435904
      vertex -70.4582625559346 93.7791717091535 -3.8016724435904
   endloop
endfacet
facet normal 0.0978436418187147 -0.995201799513873 -5.5244797598433e-017
   outer loop
      vertex -65.1616502959736 94.2999101494069 -3.8016724435904
      vertex -70.4582625559346 93.7791717091535 -4.8016724435904
      vertex -65.1616502959736 94.2999101494069 -4.8016724435904
   endloop
endfacet
facet normal 0.633449464448405 0.773784062894829 4.29536441356797e-017
   outer loop
      vertex -51.2537683465375 117.794523824457 -4.8016724435904
      vertex -55.3719624214409 121.165836256872 -3.8016724435904
      vertex -51.2537683465375 117.794523824457 -3.8016724435904
   endloop
endfacet
facet normal 0.633449464448405 0.773784062894829 4.29536441356797e-017
   outer loop
      vertex -55.3719624214409 121.165836256872 -3.8016724435904
      vertex -51.2537683465375 117.794523824457 -4.8016724435904
      vertex -55.3719624214409 121.165836256872 -4.8016724435904
   endloop
endfacet
facet normal 0.881015645005604 0.473087130722618 4.82134171381167e-017
   outer loop
      vertex -45.760995060718 109.756386055132 -3.80167244359041
      vertex -47.8709818198661 113.685749643451 -4.8016724435904
      vertex -47.8709818198661 113.685749643451 -3.8016724435904
   endloop
endfacet
facet normal 0.881015645005604 0.473087130722618 4.82134171381167e-017
   outer loop
      vertex -47.8709818198661 113.685749643451 -4.8016724435904
      vertex -45.760995060718 109.756386055132 -3.80167244359041
      vertex -45.760995060718 109.756386055132 -4.80167244359041
   endloop
endfacet
facet normal 0.0978436418187259 0.995201799513872 5.52447975984186e-017
   outer loop
      vertex -65.1616502959736 125.212861960856 -4.8016724435904
      vertex -70.4582625559346 125.73360040111 -3.8016724435904
      vertex -65.1616502959736 125.212861960856 -3.8016724435904
   endloop
endfacet
facet normal 0.0978436418187259 0.995201799513872 5.52447975984186e-017
   outer loop
      vertex -70.4582625559346 125.73360040111 -3.8016724435904
      vertex -65.1616502959736 125.212861960856 -4.8016724435904
      vertex -70.4582625559346 125.73360040111 -4.8016724435904
   endloop
endfacet
facet normal 0.470627802499685 -0.882331837527309 -4.89792560691395e-017
   outer loop
      vertex -60.0678639263255 95.8421845659477 -4.8016724435904
      vertex -55.3719624214409 98.346935853391 -3.8016724435904
      vertex -60.0678639263255 95.8421845659477 -3.8016724435904
   endloop
endfacet
facet normal 0.470627802499685 -0.882331837527309 -4.89792560691395e-017
   outer loop
      vertex -55.3719624214409 98.346935853391 -3.8016724435904
      vertex -60.0678639263255 95.8421845659477 -4.8016724435904
      vertex -55.3719624214409 98.346935853391 -4.8016724435904
   endloop
endfacet
facet normal 0.881015645005605 -0.473087130722616 -6.59354289871447e-017
   outer loop
      vertex -47.8709818198661 105.827022466812 -3.8016724435904
      vertex -45.760995060718 109.756386055132 -4.80167244359041
      vertex -45.760995060718 109.756386055132 -3.80167244359041
   endloop
endfacet
facet normal 0.881015645005605 -0.473087130722616 -6.59354289871447e-017
   outer loop
      vertex -45.760995060718 109.756386055132 -4.80167244359041
      vertex -47.8709818198661 105.827022466812 -3.8016724435904
      vertex -47.8709818198661 105.827022466812 -4.8016724435904
   endloop
endfacet
facet normal 0.470627802499691 0.882331837527305 -1.68600555941991e-017
   outer loop
      vertex -55.3719624214409 121.165836256872 -4.8016724435904
      vertex -60.0678639263255 123.670587544316 -3.8016724435904
      vertex -55.3719624214409 121.165836256872 -3.8016724435904
   endloop
endfacet
facet normal 0.470627802499691 0.882331837527305 -1.68600555941991e-017
   outer loop
      vertex -60.0678639263255 123.670587544316 -3.8016724435904
      vertex -55.3719624214409 121.165836256872 -4.8016724435904
      vertex -60.0678639263255 123.670587544316 -4.8016724435904
   endloop
endfacet
facet normal 0.772014121109726 -0.635605378208192 -7.66977593600521e-017
   outer loop
      vertex -51.2537683465374 101.718248285806 -2.8016724435904
      vertex -47.8709818198661 105.827022466812 -3.8016724435904
      vertex -47.8709818198661 105.827022466812 -2.8016724435904
   endloop
endfacet
facet normal 0.772014121109726 -0.635605378208192 -7.66977593600521e-017
   outer loop
      vertex -47.8709818198661 105.827022466812 -3.8016724435904
      vertex -51.2537683465374 101.718248285806 -2.8016724435904
      vertex -51.2537683465374 101.718248285806 -3.8016724435904
   endloop
endfacet
facet normal 4.19640935935641e-032 5.55111512312578e-017 -1.0
   outer loop
      vertex -93.0455432920033 113.685749643451 -4.8016724435904
      vertex -93.0455432920033 105.827022466812 -4.8016724435904
      vertex -95.1555300511513 109.756386055132 -4.80167244359041
   endloop
endfacet
facet normal 4.19640935935641e-032 5.55111512312578e-017 -1.0
   outer loop
      vertex -93.0455432920033 105.827022466812 -4.8016724435904
      vertex -93.0455432920033 113.685749643451 -4.8016724435904
      vertex -89.6627567653318 117.794523824457 -4.8016724435904
   endloop
endfacet
facet normal 4.19640935935641e-032 5.55111512312578e-017 -1.0
   outer loop
      vertex -93.0455432920033 105.827022466812 -4.8016724435904
      vertex -89.6627567653318 117.794523824457 -4.8016724435904
      vertex -89.6627567653318 101.718248285806 -4.8016724435904
   endloop
endfacet
facet normal 4.19640935935641e-032 5.55111512312578e-017 -1.0
   outer loop
      vertex -89.6627567653318 101.718248285806 -4.8016724435904
      vertex -89.6627567653318 117.794523824457 -4.8016724435904
      vertex -85.5445626904284 98.346935853391 -4.8016724435904
   endloop
endfacet
facet normal 4.19640935935641e-032 5.55111512312578e-017 -1.0
   outer loop
      vertex -85.5445626904284 98.346935853391 -4.8016724435904
      vertex -89.6627567653318 117.794523824457 -4.8016724435904
      vertex -85.5445626904284 121.165836256872 -4.8016724435904
   endloop
endfacet
facet normal 4.19640935935641e-032 5.55111512312578e-017 -1.0
   outer loop
      vertex -85.5445626904284 98.346935853391 -4.8016724435904
      vertex -85.5445626904284 121.165836256872 -4.8016724435904
      vertex -80.8486611855437 123.670587544316 -4.8016724435904
   endloop
endfacet
facet normal 4.19640935935641e-032 5.55111512312578e-017 -1.0
   outer loop
      vertex -85.5445626904284 98.346935853391 -4.8016724435904
      vertex -80.8486611855437 123.670587544316 -4.8016724435904
      vertex -80.8486611855437 95.8421845659476 -4.8016724435904
   endloop
endfacet
facet normal 4.19640935935641e-032 5.55111512312578e-017 -1.0
   outer loop
      vertex -80.8486611855437 95.8421845659476 -4.8016724435904
      vertex -80.8486611855437 123.670587544316 -4.8016724435904
      vertex -75.7548748158957 125.212861960856 -4.8016724435904
   endloop
endfacet
facet normal 4.19640935935641e-032 5.55111512312578e-017 -1.0
   outer loop
      vertex -80.8486611855437 95.8421845659476 -4.8016724435904
      vertex -75.7548748158957 125.212861960856 -4.8016724435904
      vertex -75.7548748158957 94.2999101494069 -4.8016724435904
   endloop
endfacet
facet normal 4.19640935935641e-032 5.55111512312578e-017 -1.0
   outer loop
      vertex -75.7548748158957 94.2999101494069 -4.8016724435904
      vertex -75.7548748158957 125.212861960856 -4.8016724435904
      vertex -70.4582625559346 125.73360040111 -4.8016724435904
   endloop
endfacet
facet normal 4.19640935935641e-032 5.55111512312578e-017 -1.0
   outer loop
      vertex -75.7548748158957 94.2999101494069 -4.8016724435904
      vertex -70.4582625559346 125.73360040111 -4.8016724435904
      vertex -70.4582625559346 93.7791717091535 -4.8016724435904
   endloop
endfacet
facet normal 4.19640935935641e-032 5.55111512312578e-017 -1.0
   outer loop
      vertex -70.4582625559346 93.7791717091535 -4.8016724435904
      vertex -70.4582625559346 125.73360040111 -4.8016724435904
      vertex -65.1616502959736 125.212861960856 -4.8016724435904
   endloop
endfacet
facet normal 4.19640935935641e-032 5.55111512312578e-017 -1.0
   outer loop
      vertex -70.4582625559346 93.7791717091535 -4.8016724435904
      vertex -65.1616502959736 125.212861960856 -4.8016724435904
      vertex -65.1616502959736 94.2999101494069 -4.8016724435904
   endloop
endfacet
facet normal 4.19640935935641e-032 5.55111512312578e-017 -1.0
   outer loop
      vertex -65.1616502959736 94.2999101494069 -4.8016724435904
      vertex -65.1616502959736 125.212861960856 -4.8016724435904
      vertex -60.0678639263255 123.670587544316 -4.8016724435904
   endloop
endfacet
facet normal 4.19640935935641e-032 5.55111512312578e-017 -1.0
   outer loop
      vertex -65.1616502959736 94.2999101494069 -4.8016724435904
      vertex -60.0678639263255 123.670587544316 -4.8016724435904
      vertex -60.0678639263255 95.8421845659477 -4.8016724435904
   endloop
endfacet
facet normal 4.19640935935641e-032 5.55111512312578e-017 -1.0
   outer loop
      vertex -60.0678639263255 95.8421845659477 -4.8016724435904
      vertex -60.0678639263255 123.670587544316 -4.8016724435904
      vertex -55.3719624214409 98.346935853391 -4.8016724435904
   endloop
endfacet
facet normal 4.19640935935641e-032 5.55111512312578e-017 -1.0
   outer loop
      vertex -55.3719624214409 98.346935853391 -4.8016724435904
      vertex -60.0678639263255 123.670587544316 -4.8016724435904
      vertex -55.3719624214409 121.165836256872 -4.8016724435904
   endloop
endfacet
facet normal 4.19640935935641e-032 5.55111512312578e-017 -1.0
   outer loop
      vertex -55.3719624214409 98.346935853391 -4.8016724435904
      vertex -55.3719624214409 121.165836256872 -4.8016724435904
      vertex -51.2537683465374 101.718248285806 -4.8016724435904
   endloop
endfacet
facet normal 4.19640935935641e-032 5.55111512312578e-017 -1.0
   outer loop
      vertex -51.2537683465374 101.718248285806 -4.8016724435904
      vertex -55.3719624214409 121.165836256872 -4.8016724435904
      vertex -51.2537683465375 117.794523824457 -4.8016724435904
   endloop
endfacet
facet normal 4.19640935935641e-032 5.55111512312578e-017 -1.0
   outer loop
      vertex -51.2537683465374 101.718248285806 -4.8016724435904
      vertex -51.2537683465375 117.794523824457 -4.8016724435904
      vertex -47.8709818198661 113.685749643451 -4.8016724435904
   endloop
endfacet
facet normal 4.19640935935641e-032 5.55111512312578e-017 -1.0
   outer loop
      vertex -51.2537683465374 101.718248285806 -4.8016724435904
      vertex -47.8709818198661 113.685749643451 -4.8016724435904
      vertex -47.8709818198661 105.827022466812 -4.8016724435904
   endloop
endfacet
facet normal 4.19640935935641e-032 5.55111512312578e-017 -1.0
   outer loop
      vertex -47.8709818198661 105.827022466812 -4.8016724435904
      vertex -47.8709818198661 113.685749643451 -4.8016724435904
      vertex -45.760995060718 109.756386055132 -4.80167244359041
   endloop
endfacet
facet normal 0.881015645005604 0.473087130722618 -1.67485250477642e-017
   outer loop
      vertex -45.760995060718 109.756386055132 -2.80167244359041
      vertex -47.8709818198661 113.685749643451 -3.8016724435904
      vertex -47.8709818198661 113.685749643451 -2.8016724435904
   endloop
endfacet
facet normal 0.881015645005604 0.473087130722618 -1.67485250477642e-017
   outer loop
      vertex -47.8709818198661 113.685749643451 -3.8016724435904
      vertex -45.760995060718 109.756386055132 -2.80167244359041
      vertex -45.760995060718 109.756386055132 -3.80167244359041
   endloop
endfacet
facet normal 0.772014121109727 0.635605378208189 3.22381881570015e-017
   outer loop
      vertex -47.8709818198661 113.685749643451 -2.8016724435904
      vertex -51.2537683465375 117.794523824457 -3.8016724435904
      vertex -51.2537683465375 117.794523824457 -2.8016724435904
   endloop
endfacet
facet normal 0.772014121109727 0.635605378208189 3.22381881570015e-017
   outer loop
      vertex -51.2537683465375 117.794523824457 -3.8016724435904
      vertex -47.8709818198661 113.685749643451 -2.8016724435904
      vertex -47.8709818198661 113.685749643451 -3.8016724435904
   endloop
endfacet
facet normal -0.633449464448403 0.773784062894831 3.28655379283288e-017
   outer loop
      vertex -85.5445626904284 121.165836256872 -3.8016724435904
      vertex -89.6627567653318 117.794523824457 -2.8016724435904
      vertex -85.5445626904284 121.165836256872 -2.8016724435904
   endloop
endfacet
facet normal -0.633449464448403 0.773784062894831 3.28655379283288e-017
   outer loop
      vertex -89.6627567653318 117.794523824457 -2.8016724435904
      vertex -85.5445626904284 121.165836256872 -3.8016724435904
      vertex -89.6627567653318 117.794523824457 -3.8016724435904
   endloop
endfacet
facet normal -4.19640935935641e-032 -5.55111512312578e-017 1.0
   outer loop
      vertex -93.0455432920033 105.827022466812 -2.8016724435904
      vertex -93.0455432920033 113.685749643451 -2.8016724435904
      vertex -95.1555300511513 109.756386055132 -2.80167244359041
   endloop
endfacet
facet normal -4.19640935935641e-032 -5.55111512312578e-017 1.0
   outer loop
      vertex -93.0455432920033 113.685749643451 -2.8016724435904
      vertex -93.0455432920033 105.827022466812 -2.8016724435904
      vertex -89.6627567653318 117.794523824457 -2.8016724435904
   endloop
endfacet
facet normal -4.19640935935641e-032 -5.55111512312578e-017 1.0
   outer loop
      vertex -89.6627567653318 117.794523824457 -2.8016724435904
      vertex -93.0455432920033 105.827022466812 -2.8016724435904
      vertex -89.6627567653318 101.718248285806 -2.8016724435904
   endloop
endfacet
facet normal -4.19640935935641e-032 -5.55111512312578e-017 1.0
   outer loop
      vertex -89.6627567653318 117.794523824457 -2.8016724435904
      vertex -89.6627567653318 101.718248285806 -2.8016724435904
      vertex -85.5445626904284 98.346935853391 -2.8016724435904
   endloop
endfacet
facet normal -4.19640935935641e-032 -5.55111512312578e-017 1.0
   outer loop
      vertex -89.6627567653318 117.794523824457 -2.8016724435904
      vertex -85.5445626904284 98.346935853391 -2.8016724435904
      vertex -85.5445626904284 121.165836256872 -2.8016724435904
   endloop
endfacet
facet normal -4.19640935935641e-032 -5.55111512312578e-017 1.0
   outer loop
      vertex -85.5445626904284 121.165836256872 -2.8016724435904
      vertex -85.5445626904284 98.346935853391 -2.8016724435904
      vertex -80.8486611855437 123.670587544316 -2.8016724435904
   endloop
endfacet
facet normal -4.19640935935641e-032 -5.55111512312578e-017 1.0
   outer loop
      vertex -80.8486611855437 123.670587544316 -2.8016724435904
      vertex -85.5445626904284 98.346935853391 -2.8016724435904
      vertex -80.8486611855437 95.8421845659476 -2.8016724435904
   endloop
endfacet
facet normal -4.19640935935641e-032 -5.55111512312578e-017 1.0
   outer loop
      vertex -80.8486611855437 123.670587544316 -2.8016724435904
      vertex -80.8486611855437 95.8421845659476 -2.8016724435904
      vertex -75.7548748158957 125.212861960856 -2.8016724435904
   endloop
endfacet
facet normal -4.19640935935641e-032 -5.55111512312578e-017 1.0
   outer loop
      vertex -75.7548748158957 125.212861960856 -2.8016724435904
      vertex -80.8486611855437 95.8421845659476 -2.8016724435904
      vertex -75.7548748158957 94.2999101494069 -2.8016724435904
   endloop
endfacet
facet normal -4.19640935935641e-032 -5.55111512312578e-017 1.0
   outer loop
      vertex -75.7548748158957 125.212861960856 -2.8016724435904
      vertex -75.7548748158957 94.2999101494069 -2.8016724435904
      vertex -70.4582625559346 93.7791717091535 -2.8016724435904
   endloop
endfacet
facet normal -4.19640935935641e-032 -5.55111512312578e-017 1.0
   outer loop
      vertex -75.7548748158957 125.212861960856 -2.8016724435904
      vertex -70.4582625559346 93.7791717091535 -2.8016724435904
      vertex -70.4582625559346 125.73360040111 -2.8016724435904
   endloop
endfacet
facet normal -4.19640935935641e-032 -5.55111512312578e-017 1.0
   outer loop
      vertex -70.4582625559346 125.73360040111 -2.8016724435904
      vertex -70.4582625559346 93.7791717091535 -2.8016724435904
      vertex -65.1616502959736 125.212861960856 -2.8016724435904
   endloop
endfacet
facet normal -4.19640935935641e-032 -5.55111512312578e-017 1.0
   outer loop
      vertex -65.1616502959736 125.212861960856 -2.8016724435904
      vertex -70.4582625559346 93.7791717091535 -2.8016724435904
      vertex -65.1616502959736 94.2999101494069 -2.8016724435904
   endloop
endfacet
facet normal -4.19640935935641e-032 -5.55111512312578e-017 1.0
   outer loop
      vertex -65.1616502959736 125.212861960856 -2.8016724435904
      vertex -65.1616502959736 94.2999101494069 -2.8016724435904
      vertex -60.0678639263255 123.670587544316 -2.8016724435904
   endloop
endfacet
facet normal -4.19640935935641e-032 -5.55111512312578e-017 1.0
   outer loop
      vertex -60.0678639263255 123.670587544316 -2.8016724435904
      vertex -65.1616502959736 94.2999101494069 -2.8016724435904
      vertex -60.0678639263255 95.8421845659477 -2.8016724435904
   endloop
endfacet
facet normal -4.19640935935641e-032 -5.55111512312578e-017 1.0
   outer loop
      vertex -60.0678639263255 123.670587544316 -2.8016724435904
      vertex -60.0678639263255 95.8421845659477 -2.8016724435904
      vertex -55.3719624214409 98.346935853391 -2.8016724435904
   endloop
endfacet
facet normal -4.19640935935641e-032 -5.55111512312578e-017 1.0
   outer loop
      vertex -60.0678639263255 123.670587544316 -2.8016724435904
      vertex -55.3719624214409 98.346935853391 -2.8016724435904
      vertex -55.3719624214409 121.165836256872 -2.8016724435904
   endloop
endfacet
facet normal -4.19640935935641e-032 -5.55111512312578e-017 1.0
   outer loop
      vertex -55.3719624214409 121.165836256872 -2.8016724435904
      vertex -55.3719624214409 98.346935853391 -2.8016724435904
      vertex -51.2537683465374 101.718248285806 -2.8016724435904
   endloop
endfacet
facet normal -4.19640935935641e-032 -5.55111512312578e-017 1.0
   outer loop
      vertex -55.3719624214409 121.165836256872 -2.8016724435904
      vertex -51.2537683465374 101.718248285806 -2.8016724435904
      vertex -51.2537683465375 117.794523824457 -2.8016724435904
   endloop
endfacet
facet normal -4.19640935935641e-032 -5.55111512312578e-017 1.0
   outer loop
      vertex -51.2537683465375 117.794523824457 -2.8016724435904
      vertex -51.2537683465374 101.718248285806 -2.8016724435904
      vertex -47.8709818198661 113.685749643451 -2.8016724435904
   endloop
endfacet
facet normal -4.19640935935641e-032 -5.55111512312578e-017 1.0
   outer loop
      vertex -47.8709818198661 113.685749643451 -2.8016724435904
      vertex -51.2537683465374 101.718248285806 -2.8016724435904
      vertex -47.8709818198661 105.827022466812 -2.8016724435904
   endloop
endfacet
facet normal -4.19640935935641e-032 -5.55111512312578e-017 1.0
   outer loop
      vertex -47.8709818198661 113.685749643451 -2.8016724435904
      vertex -47.8709818198661 105.827022466812 -2.8016724435904
      vertex -45.760995060718 109.756386055132 -2.80167244359041
   endloop
endfacet
facet normal 0.0978436418187147 -0.995201799513873 -6.40449158023159e-017
   outer loop
      vertex -70.4582625559346 93.7791717091535 -3.8016724435904
      vertex -65.1616502959736 94.2999101494069 -2.8016724435904
      vertex -70.4582625559346 93.7791717091535 -2.8016724435904
   endloop
endfacet
facet normal 0.0978436418187147 -0.995201799513873 -6.40449158023159e-017
   outer loop
      vertex -65.1616502959736 94.2999101494069 -2.8016724435904
      vertex -70.4582625559346 93.7791717091535 -3.8016724435904
      vertex -65.1616502959736 94.2999101494069 -3.8016724435904
   endloop
endfacet
facet normal 0.470627802499685 -0.882331837527309 -4.28501465644626e-017
   outer loop
      vertex -60.0678639263255 95.8421845659477 -3.8016724435904
      vertex -55.3719624214409 98.346935853391 -2.8016724435904
      vertex -60.0678639263255 95.8421845659477 -2.8016724435904
   endloop
endfacet
facet normal 0.470627802499685 -0.882331837527309 -4.28501465644626e-017
   outer loop
      vertex -55.3719624214409 98.346935853391 -2.8016724435904
      vertex -60.0678639263255 95.8421845659477 -3.8016724435904
      vertex -55.3719624214409 98.346935853391 -3.8016724435904
   endloop
endfacet
facet normal 0.633449464448405 0.773784062894829 5.30417503430142e-017
   outer loop
      vertex -51.2537683465375 117.794523824457 -3.8016724435904
      vertex -55.3719624214409 121.165836256872 -2.8016724435904
      vertex -51.2537683465375 117.794523824457 -2.8016724435904
   endloop
endfacet
facet normal 0.633449464448405 0.773784062894829 5.30417503430142e-017
   outer loop
      vertex -55.3719624214409 121.165836256872 -2.8016724435904
      vertex -51.2537683465375 117.794523824457 -3.8016724435904
      vertex -55.3719624214409 121.165836256872 -3.8016724435904
   endloop
endfacet
facet normal -0.881015645005604 0.473087130722619 -3.15131146698655e-017
   outer loop
      vertex -95.1555300511513 109.756386055132 -3.80167244359041
      vertex -93.0455432920033 113.685749643451 -2.8016724435904
      vertex -93.0455432920033 113.685749643451 -3.8016724435904
   endloop
endfacet
facet normal -0.881015645005604 0.473087130722619 -3.15131146698655e-017
   outer loop
      vertex -93.0455432920033 113.685749643451 -2.8016724435904
      vertex -95.1555300511513 109.756386055132 -3.80167244359041
      vertex -95.1555300511513 109.756386055132 -2.80167244359041
   endloop
endfacet
facet normal -0.881015645005604 -0.473087130722618 -3.61800656911375e-017
   outer loop
      vertex -93.0455432920033 105.827022466812 -3.8016724435904
      vertex -95.1555300511513 109.756386055132 -2.80167244359041
      vertex -95.1555300511513 109.756386055132 -3.80167244359041
   endloop
endfacet
facet normal -0.881015645005604 -0.473087130722618 -3.61800656911375e-017
   outer loop
      vertex -95.1555300511513 109.756386055132 -2.80167244359041
      vertex -93.0455432920033 105.827022466812 -3.8016724435904
      vertex -93.0455432920033 105.827022466812 -2.8016724435904
   endloop
endfacet
facet normal -0.0978436418187259 0.995201799513872 4.64446793945411e-017
   outer loop
      vertex -70.4582625559346 125.73360040111 -3.8016724435904
      vertex -75.7548748158957 125.212861960856 -2.8016724435904
      vertex -70.4582625559346 125.73360040111 -2.8016724435904
   endloop
endfacet
facet normal -0.0978436418187259 0.995201799513872 4.64446793945411e-017
   outer loop
      vertex -75.7548748158957 125.212861960856 -2.8016724435904
      vertex -70.4582625559346 125.73360040111 -3.8016724435904
      vertex -75.7548748158957 125.212861960856 -3.8016724435904
   endloop
endfacet
facet normal 0.633449464448405 -0.773784062894829 -5.30417503429849e-017
   outer loop
      vertex -55.3719624214409 98.346935853391 -3.8016724435904
      vertex -51.2537683465374 101.718248285806 -2.8016724435904
      vertex -55.3719624214409 98.346935853391 -2.8016724435904
   endloop
endfacet
facet normal 0.633449464448405 -0.773784062894829 -5.30417503429849e-017
   outer loop
      vertex -51.2537683465374 101.718248285806 -2.8016724435904
      vertex -55.3719624214409 98.346935853391 -3.8016724435904
      vertex -51.2537683465374 101.718248285806 -3.8016724435904
   endloop
endfacet
facet normal 0.289784148688439 -0.95709202648905 -2.85803115915253e-017
   outer loop
      vertex -65.1616502959736 94.2999101494069 -3.8016724435904
      vertex -60.0678639263255 95.8421845659477 -2.8016724435904
      vertex -65.1616502959736 94.2999101494069 -2.8016724435904
   endloop
endfacet
facet normal 0.289784148688439 -0.95709202648905 -2.85803115915253e-017
   outer loop
      vertex -60.0678639263255 95.8421845659477 -2.8016724435904
      vertex -65.1616502959736 94.2999101494069 -3.8016724435904
      vertex -60.0678639263255 95.8421845659477 -3.8016724435904
   endloop
endfacet
facet normal -0.0978436418187171 -0.995201799513873 -3.2756669477216e-017
   outer loop
      vertex -75.7548748158957 94.2999101494069 -3.8016724435904
      vertex -70.4582625559346 93.7791717091535 -2.8016724435904
      vertex -75.7548748158957 94.2999101494069 -2.8016724435904
   endloop
endfacet
facet normal -0.0978436418187171 -0.995201799513873 -3.2756669477216e-017
   outer loop
      vertex -70.4582625559346 93.7791717091535 -2.8016724435904
      vertex -75.7548748158957 94.2999101494069 -3.8016724435904
      vertex -70.4582625559346 93.7791717091535 -3.8016724435904
   endloop
endfacet
facet normal 0.470627802499692 0.882331837527305 4.28501465644856e-017
   outer loop
      vertex -55.3719624214409 121.165836256872 -3.8016724435904
      vertex -60.0678639263255 123.670587544316 -2.8016724435904
      vertex -55.3719624214409 121.165836256872 -2.8016724435904
   endloop
endfacet
facet normal 0.470627802499692 0.882331837527305 4.28501465644856e-017
   outer loop
      vertex -60.0678639263255 123.670587544316 -2.8016724435904
      vertex -55.3719624214409 121.165836256872 -3.8016724435904
      vertex -60.0678639263255 123.670587544316 -3.8016724435904
   endloop
endfacet
facet normal 0.289784148688426 0.957092026489054 -4.89321031256298e-018
   outer loop
      vertex -60.0678639263255 123.670587544316 -3.8016724435904
      vertex -65.1616502959736 125.212861960856 -2.8016724435904
      vertex -60.0678639263255 123.670587544316 -2.8016724435904
   endloop
endfacet
facet normal 0.289784148688426 0.957092026489054 -4.89321031256298e-018
   outer loop
      vertex -65.1616502959736 125.212861960856 -2.8016724435904
      vertex -60.0678639263255 123.670587544316 -3.8016724435904
      vertex -65.1616502959736 125.212861960856 -3.8016724435904
   endloop
endfacet
facet normal 0.0978436418187259 0.995201799513872 5.03569058849829e-017
   outer loop
      vertex -65.1616502959736 125.212861960856 -3.8016724435904
      vertex -70.4582625559346 125.73360040111 -2.8016724435904
      vertex -65.1616502959736 125.212861960856 -2.8016724435904
   endloop
endfacet
facet normal 0.0978436418187259 0.995201799513872 5.03569058849829e-017
   outer loop
      vertex -70.4582625559346 125.73360040111 -2.8016724435904
      vertex -65.1616502959736 125.212861960856 -3.8016724435904
      vertex -70.4582625559346 125.73360040111 -3.8016724435904
   endloop
endfacet
facet normal 0.881015645005605 -0.473087130722616 -1.78529734383427e-017
   outer loop
      vertex -47.8709818198661 105.827022466812 -2.8016724435904
      vertex -45.760995060718 109.756386055132 -3.80167244359041
      vertex -45.760995060718 109.756386055132 -2.80167244359041
   endloop
endfacet
facet normal 0.881015645005605 -0.473087130722616 -1.78529734383427e-017
   outer loop
      vertex -45.760995060718 109.756386055132 -3.80167244359041
      vertex -47.8709818198661 105.827022466812 -2.8016724435904
      vertex -47.8709818198661 105.827022466812 -3.8016724435904
   endloop
endfacet
facet normal -0.772014121109728 0.635605378208188 3.83281843892511e-017
   outer loop
      vertex -93.0455432920033 113.685749643451 -3.8016724435904
      vertex -89.6627567653318 117.794523824457 -2.8016724435904
      vertex -89.6627567653318 117.794523824457 -3.8016724435904
   endloop
endfacet
facet normal -0.772014121109728 0.635605378208188 3.83281843892511e-017
   outer loop
      vertex -89.6627567653318 117.794523824457 -2.8016724435904
      vertex -93.0455432920033 113.685749643451 -3.8016724435904
      vertex -93.0455432920033 113.685749643451 -2.8016724435904
   endloop
endfacet
facet normal -0.289784148688431 0.957092026489053 4.42047269537675e-017
   outer loop
      vertex -75.7548748158957 125.212861960856 -3.8016724435904
      vertex -80.8486611855437 123.670587544316 -2.8016724435904
      vertex -75.7548748158957 125.212861960856 -2.8016724435904
   endloop
endfacet
facet normal -0.289784148688431 0.957092026489053 4.42047269537675e-017
   outer loop
      vertex -80.8486611855437 123.670587544316 -2.8016724435904
      vertex -75.7548748158957 125.212861960856 -3.8016724435904
      vertex -80.8486611855437 123.670587544316 -3.8016724435904
   endloop
endfacet
facet normal -0.470627802499686 0.882331837527308 -8.67013483364115e-018
   outer loop
      vertex -80.8486611855437 123.670587544316 -3.8016724435904
      vertex -85.5445626904284 121.165836256872 -2.8016724435904
      vertex -80.8486611855437 123.670587544316 -2.8016724435904
   endloop
endfacet
facet normal -0.470627802499686 0.882331837527308 -8.67013483364115e-018
   outer loop
      vertex -85.5445626904284 121.165836256872 -2.8016724435904
      vertex -80.8486611855437 123.670587544316 -3.8016724435904
      vertex -85.5445626904284 121.165836256872 -3.8016724435904
   endloop
endfacet
facet normal -0.772014121109728 -0.635605378208188 6.13138681388117e-018
   outer loop
      vertex -89.6627567653318 101.718248285806 -3.8016724435904
      vertex -93.0455432920033 105.827022466812 -2.8016724435904
      vertex -93.0455432920033 105.827022466812 -3.8016724435904
   endloop
endfacet
facet normal -0.772014121109728 -0.635605378208188 6.13138681388117e-018
   outer loop
      vertex -93.0455432920033 105.827022466812 -2.8016724435904
      vertex -89.6627567653318 101.718248285806 -3.8016724435904
      vertex -89.6627567653318 101.718248285806 -2.8016724435904
   endloop
endfacet
facet normal -0.470627802499687 -0.882331837527308 -8.80280214054255e-017
   outer loop
      vertex -85.5445626904284 98.346935853391 -3.8016724435904
      vertex -80.8486611855437 95.8421845659476 -2.8016724435904
      vertex -85.5445626904284 98.346935853391 -2.8016724435904
   endloop
endfacet
facet normal -0.470627802499687 -0.882331837527308 -8.80280214054255e-017
   outer loop
      vertex -80.8486611855437 95.8421845659476 -2.8016724435904
      vertex -85.5445626904284 98.346935853391 -3.8016724435904
      vertex -80.8486611855437 95.8421845659476 -3.8016724435904
   endloop
endfacet
facet normal -0.633449464448403 -0.77378406289483 -7.71743064406344e-017
   outer loop
      vertex -89.6627567653318 101.718248285806 -3.8016724435904
      vertex -85.5445626904284 98.346935853391 -2.8016724435904
      vertex -89.6627567653318 101.718248285806 -2.8016724435904
   endloop
endfacet
facet normal -0.633449464448403 -0.77378406289483 -7.71743064406344e-017
   outer loop
      vertex -85.5445626904284 98.346935853391 -2.8016724435904
      vertex -89.6627567653318 101.718248285806 -3.8016724435904
      vertex -85.5445626904284 98.346935853391 -3.8016724435904
   endloop
endfacet
facet normal -0.289784148688431 -0.957092026489052 -7.76782488578307e-017
   outer loop
      vertex -80.8486611855437 95.8421845659476 -3.8016724435904
      vertex -75.7548748158957 94.2999101494069 -2.8016724435904
      vertex -80.8486611855437 95.8421845659476 -2.8016724435904
   endloop
endfacet
facet normal -0.289784148688431 -0.957092026489052 -7.76782488578307e-017
   outer loop
      vertex -75.7548748158957 94.2999101494069 -2.8016724435904
      vertex -80.8486611855437 95.8421845659476 -3.8016724435904
      vertex -75.7548748158957 94.2999101494069 -3.8016724435904
   endloop
endfacet
facet normal -0.0978436418187186 -0.995201799513873 -5.52447975984345e-017
   outer loop
      vertex -76.1394610375885 92.3629352354201 -4.8016724435904
      vertex -70.4582625559346 91.8043860551317 -3.8016724435904
      vertex -76.1394610375885 92.3629352354201 -3.8016724435904
   endloop
endfacet
facet normal -0.0978436418187186 -0.995201799513873 -5.52447975984345e-017
   outer loop
      vertex -70.4582625559346 91.8043860551317 -3.8016724435904
      vertex -76.1394610375885 92.3629352354201 -4.8016724435904
      vertex -70.4582625559346 91.8043860551317 -4.8016724435904
   endloop
endfacet
facet normal -0.772014121109729 -0.635605378208187 -3.52831862731155e-017
   outer loop
      vertex -91.0571922091614 100.319917791137 -4.8016724435904
      vertex -94.6856023581093 104.727029449101 -3.8016724435904
      vertex -94.6856023581093 104.727029449101 -4.8016724435904
   endloop
endfacet
facet normal -0.772014121109729 -0.635605378208187 -3.52831862731155e-017
   outer loop
      vertex -94.6856023581093 104.727029449101 -3.8016724435904
      vertex -91.0571922091614 100.319917791137 -4.8016724435904
      vertex -91.0571922091614 100.319917791137 -3.8016724435904
   endloop
endfacet
facet normal 0.289784148688428 0.957092026489053 5.31292802246649e-017
   outer loop
      vertex -59.3134186404114 125.495578144262 -4.8016724435904
      vertex -64.7770640742808 127.149836874843 -3.8016724435904
      vertex -59.3134186404114 125.495578144262 -3.8016724435904
   endloop
endfacet
facet normal 0.289784148688428 0.957092026489053 5.31292802246649e-017
   outer loop
      vertex -64.7770640742808 127.149836874843 -3.8016724435904
      vertex -59.3134186404114 125.495578144262 -4.8016724435904
      vertex -64.7770640742808 127.149836874843 -4.8016724435904
   endloop
endfacet
facet normal -0.289784148688431 0.957092026489053 5.31292802246648e-017
   outer loop
      vertex -76.1394610375885 127.149836874843 -4.8016724435904
      vertex -81.6031064714578 125.495578144262 -3.8016724435904
      vertex -76.1394610375885 127.149836874843 -3.8016724435904
   endloop
endfacet
facet normal -0.289784148688431 0.957092026489053 5.31292802246648e-017
   outer loop
      vertex -81.6031064714578 125.495578144262 -3.8016724435904
      vertex -76.1394610375885 127.149836874843 -4.8016724435904
      vertex -81.6031064714578 125.495578144262 -4.8016724435904
   endloop
endfacet
facet normal 0.0978436418187186 -0.995201799513873 -5.52447975984345e-017
   outer loop
      vertex -70.4582625559346 91.8043860551317 -4.8016724435904
      vertex -64.7770640742808 92.3629352354201 -3.8016724435904
      vertex -70.4582625559346 91.8043860551317 -3.8016724435904
   endloop
endfacet
facet normal 0.0978436418187186 -0.995201799513873 -5.52447975984345e-017
   outer loop
      vertex -64.7770640742808 92.3629352354201 -3.8016724435904
      vertex -70.4582625559346 91.8043860551317 -4.8016724435904
      vertex -64.7770640742808 92.3629352354201 -4.8016724435904
   endloop
endfacet
facet normal 0.0978436418187245 0.995201799513872 5.52447975984345e-017
   outer loop
      vertex -64.7770640742808 127.149836874843 -4.8016724435904
      vertex -70.4582625559347 127.708386055132 -3.8016724435904
      vertex -64.7770640742808 127.149836874843 -3.8016724435904
   endloop
endfacet
facet normal 0.0978436418187245 0.995201799513872 5.52447975984345e-017
   outer loop
      vertex -70.4582625559347 127.708386055132 -3.8016724435904
      vertex -64.7770640742808 127.149836874843 -4.8016724435904
      vertex -70.4582625559347 127.708386055132 -4.8016724435904
   endloop
endfacet
facet normal -0.470627802499685 0.882331837527309 4.8979256069132e-017
   outer loop
      vertex -81.6031064714578 125.495578144262 -4.8016724435904
      vertex -86.639976680217 122.808957241555 -3.8016724435904
      vertex -81.6031064714578 125.495578144262 -3.8016724435904
   endloop
endfacet
facet normal -0.470627802499685 0.882331837527309 4.8979256069132e-017
   outer loop
      vertex -86.639976680217 122.808957241555 -3.8016724435904
      vertex -81.6031064714578 125.495578144262 -4.8016724435904
      vertex -86.639976680217 122.808957241555 -4.8016724435904
   endloop
endfacet
facet normal -0.0978436418187247 0.995201799513872 5.52447975984345e-017
   outer loop
      vertex -70.4582625559347 127.708386055132 -4.8016724435904
      vertex -76.1394610375885 127.149836874843 -3.8016724435904
      vertex -70.4582625559347 127.708386055132 -3.8016724435904
   endloop
endfacet
facet normal -0.0978436418187247 0.995201799513872 5.52447975984345e-017
   outer loop
      vertex -76.1394610375885 127.149836874843 -3.8016724435904
      vertex -70.4582625559347 127.708386055132 -4.8016724435904
      vertex -76.1394610375885 127.149836874843 -4.8016724435904
   endloop
endfacet
facet normal -0.772014121109728 0.635605378208188 3.52831862731156e-017
   outer loop
      vertex -94.6856023581093 114.785742661163 -4.8016724435904
      vertex -91.0571922091614 119.192854319126 -3.8016724435904
      vertex -91.0571922091614 119.192854319126 -4.8016724435904
   endloop
endfacet
facet normal -0.772014121109728 0.635605378208188 3.52831862731156e-017
   outer loop
      vertex -91.0571922091614 119.192854319126 -3.8016724435904
      vertex -94.6856023581093 114.785742661163 -4.8016724435904
      vertex -94.6856023581093 114.785742661163 -3.8016724435904
   endloop
endfacet
facet normal -0.881015645005604 0.473087130722619 2.62616112591051e-017
   outer loop
      vertex -97.3862625559347 109.756386055132 -4.80167244359041
      vertex -94.6856023581093 114.785742661163 -3.8016724435904
      vertex -94.6856023581093 114.785742661163 -4.8016724435904
   endloop
endfacet
facet normal -0.881015645005604 0.473087130722619 2.62616112591051e-017
   outer loop
      vertex -94.6856023581093 114.785742661163 -3.8016724435904
      vertex -97.3862625559347 109.756386055132 -4.80167244359041
      vertex -97.3862625559347 109.756386055132 -3.80167244359041
   endloop
endfacet
facet normal -0.470627802499686 -0.882331837527309 -4.8979256069132e-017
   outer loop
      vertex -86.639976680217 96.7038148687081 -4.8016724435904
      vertex -81.6031064714579 94.0171939660014 -3.8016724435904
      vertex -86.639976680217 96.7038148687081 -3.8016724435904
   endloop
endfacet
facet normal -0.470627802499686 -0.882331837527309 -4.8979256069132e-017
   outer loop
      vertex -81.6031064714579 94.0171939660014 -3.8016724435904
      vertex -86.639976680217 96.7038148687081 -4.8016724435904
      vertex -81.6031064714579 94.0171939660014 -4.8016724435904
   endloop
endfacet
facet normal 0.289784148688438 -0.95709202648905 -5.31292802246647e-017
   outer loop
      vertex -64.7770640742808 92.3629352354201 -4.8016724435904
      vertex -59.3134186404114 94.0171939660014 -3.8016724435904
      vertex -64.7770640742808 92.3629352354201 -3.8016724435904
   endloop
endfacet
facet normal 0.289784148688438 -0.95709202648905 -5.31292802246647e-017
   outer loop
      vertex -59.3134186404114 94.0171939660014 -3.8016724435904
      vertex -64.7770640742808 92.3629352354201 -4.8016724435904
      vertex -59.3134186404114 94.0171939660014 -4.8016724435904
   endloop
endfacet
facet normal -0.633449464448405 0.773784062894829 4.29536441356919e-017
   outer loop
      vertex -86.639976680217 122.808957241555 -4.8016724435904
      vertex -91.0571922091614 119.192854319126 -3.8016724435904
      vertex -86.639976680217 122.808957241555 -3.8016724435904
   endloop
endfacet
facet normal -0.633449464448405 0.773784062894829 4.29536441356919e-017
   outer loop
      vertex -91.0571922091614 119.192854319126 -3.8016724435904
      vertex -86.639976680217 122.808957241555 -4.8016724435904
      vertex -91.0571922091614 119.192854319126 -4.8016724435904
   endloop
endfacet
facet normal -0.633449464448404 -0.77378406289483 -4.2953644135692e-017
   outer loop
      vertex -91.0571922091614 100.319917791137 -4.8016724435904
      vertex -86.639976680217 96.7038148687081 -3.8016724435904
      vertex -91.0571922091614 100.319917791137 -3.8016724435904
   endloop
endfacet
facet normal -0.633449464448404 -0.77378406289483 -4.2953644135692e-017
   outer loop
      vertex -86.639976680217 96.7038148687081 -3.8016724435904
      vertex -91.0571922091614 100.319917791137 -4.8016724435904
      vertex -86.639976680217 96.7038148687081 -4.8016724435904
   endloop
endfacet
facet normal -0.289784148688434 -0.957092026489052 -5.31292802246648e-017
   outer loop
      vertex -81.6031064714579 94.0171939660014 -4.8016724435904
      vertex -76.1394610375885 92.3629352354201 -3.8016724435904
      vertex -81.6031064714579 94.0171939660014 -3.8016724435904
   endloop
endfacet
facet normal -0.289784148688434 -0.957092026489052 -5.31292802246648e-017
   outer loop
      vertex -76.1394610375885 92.3629352354201 -3.8016724435904
      vertex -81.6031064714579 94.0171939660014 -4.8016724435904
      vertex -76.1394610375885 92.3629352354201 -4.8016724435904
   endloop
endfacet
facet normal 0.470627802499686 -0.882331837527309 -4.8979256069132e-017
   outer loop
      vertex -59.3134186404114 94.0171939660014 -4.8016724435904
      vertex -54.2765484316523 96.7038148687081 -3.8016724435904
      vertex -59.3134186404114 94.0171939660014 -3.8016724435904
   endloop
endfacet
facet normal 0.470627802499686 -0.882331837527309 -4.8979256069132e-017
   outer loop
      vertex -54.2765484316523 96.7038148687081 -3.8016724435904
      vertex -59.3134186404114 94.0171939660014 -4.8016724435904
      vertex -54.2765484316523 96.7038148687081 -4.8016724435904
   endloop
endfacet
facet normal 0.633449464448403 -0.773784062894831 -4.29536441356921e-017
   outer loop
      vertex -54.2765484316523 96.7038148687081 -4.8016724435904
      vertex -49.8593329027079 100.319917791137 -3.8016724435904
      vertex -54.2765484316523 96.7038148687081 -3.8016724435904
   endloop
endfacet
facet normal 0.633449464448403 -0.773784062894831 -4.29536441356921e-017
   outer loop
      vertex -49.8593329027079 100.319917791137 -3.8016724435904
      vertex -54.2765484316523 96.7038148687081 -4.8016724435904
      vertex -49.8593329027079 100.319917791137 -4.8016724435904
   endloop
endfacet
facet normal 0.772014121109726 -0.635605378208191 -3.52831862731157e-017
   outer loop
      vertex -49.8593329027079 100.319917791137 -3.8016724435904
      vertex -46.23092275376 104.727029449101 -4.8016724435904
      vertex -46.23092275376 104.727029449101 -3.8016724435904
   endloop
endfacet
facet normal 0.772014121109726 -0.635605378208191 -3.52831862731157e-017
   outer loop
      vertex -46.23092275376 104.727029449101 -4.8016724435904
      vertex -49.8593329027079 100.319917791137 -3.8016724435904
      vertex -49.8593329027079 100.319917791137 -4.8016724435904
   endloop
endfacet
facet normal 0.881015645005605 -0.473087130722616 -2.6261611259105e-017
   outer loop
      vertex -46.23092275376 104.727029449101 -3.8016724435904
      vertex -43.5302625559346 109.756386055132 -4.80167244359041
      vertex -43.5302625559346 109.756386055132 -3.80167244359041
   endloop
endfacet
facet normal 0.881015645005605 -0.473087130722616 -2.6261611259105e-017
   outer loop
      vertex -43.5302625559346 109.756386055132 -4.80167244359041
      vertex -46.23092275376 104.727029449101 -3.8016724435904
      vertex -46.23092275376 104.727029449101 -4.8016724435904
   endloop
endfacet
facet normal 0.881015645005604 0.473087130722618 2.62616112591051e-017
   outer loop
      vertex -43.5302625559346 109.756386055132 -3.80167244359041
      vertex -46.23092275376 114.785742661163 -4.8016724435904
      vertex -46.23092275376 114.785742661163 -3.8016724435904
   endloop
endfacet
facet normal 0.881015645005604 0.473087130722618 2.62616112591051e-017
   outer loop
      vertex -46.23092275376 114.785742661163 -4.8016724435904
      vertex -43.5302625559346 109.756386055132 -3.80167244359041
      vertex -43.5302625559346 109.756386055132 -4.80167244359041
   endloop
endfacet
facet normal -2.6623181858005e-032 -5.55111512312578e-017 1.0
   outer loop
      vertex -94.6856023581093 104.727029449101 -3.8016724435904
      vertex -95.1555300511513 109.756386055132 -3.80167244359041
      vertex -97.3862625559347 109.756386055132 -3.80167244359041
   endloop
endfacet
facet normal -2.6623181858005e-032 -5.55111512312578e-017 1.0
   outer loop
      vertex -95.1555300511513 109.756386055132 -3.80167244359041
      vertex -94.6856023581093 104.727029449101 -3.8016724435904
      vertex -93.0455432920033 105.827022466812 -3.8016724435904
   endloop
endfacet
facet normal -2.6623181858005e-032 -5.55111512312578e-017 1.0
   outer loop
      vertex -93.0455432920033 105.827022466812 -3.8016724435904
      vertex -94.6856023581093 104.727029449101 -3.8016724435904
      vertex -91.0571922091614 100.319917791137 -3.8016724435904
   endloop
endfacet
facet normal -2.6623181858005e-032 -5.55111512312578e-017 1.0
   outer loop
      vertex -93.0455432920033 105.827022466812 -3.8016724435904
      vertex -91.0571922091614 100.319917791137 -3.8016724435904
      vertex -89.6627567653318 101.718248285806 -3.8016724435904
   endloop
endfacet
facet normal -2.6623181858005e-032 -5.55111512312578e-017 1.0
   outer loop
      vertex -89.6627567653318 101.718248285806 -3.8016724435904
      vertex -91.0571922091614 100.319917791137 -3.8016724435904
      vertex -86.639976680217 96.7038148687081 -3.8016724435904
   endloop
endfacet
facet normal -2.6623181858005e-032 -5.55111512312578e-017 1.0
   outer loop
      vertex -89.6627567653318 101.718248285806 -3.8016724435904
      vertex -86.639976680217 96.7038148687081 -3.8016724435904
      vertex -85.5445626904284 98.346935853391 -3.8016724435904
   endloop
endfacet
facet normal -2.6623181858005e-032 -5.55111512312578e-017 1.0
   outer loop
      vertex -85.5445626904284 98.346935853391 -3.8016724435904
      vertex -86.639976680217 96.7038148687081 -3.8016724435904
      vertex -81.6031064714579 94.0171939660014 -3.8016724435904
   endloop
endfacet
facet normal -2.6623181858005e-032 -5.55111512312578e-017 1.0
   outer loop
      vertex -85.5445626904284 98.346935853391 -3.8016724435904
      vertex -81.6031064714579 94.0171939660014 -3.8016724435904
      vertex -80.8486611855437 95.8421845659476 -3.8016724435904
   endloop
endfacet
facet normal -2.6623181858005e-032 -5.55111512312578e-017 1.0
   outer loop
      vertex -80.8486611855437 95.8421845659476 -3.8016724435904
      vertex -81.6031064714579 94.0171939660014 -3.8016724435904
      vertex -76.1394610375885 92.3629352354201 -3.8016724435904
   endloop
endfacet
facet normal -2.6623181858005e-032 -5.55111512312578e-017 1.0
   outer loop
      vertex -80.8486611855437 95.8421845659476 -3.8016724435904
      vertex -76.1394610375885 92.3629352354201 -3.8016724435904
      vertex -75.7548748158957 94.2999101494069 -3.8016724435904
   endloop
endfacet
facet normal -2.6623181858005e-032 -5.55111512312578e-017 1.0
   outer loop
      vertex -75.7548748158957 94.2999101494069 -3.8016724435904
      vertex -76.1394610375885 92.3629352354201 -3.8016724435904
      vertex -70.4582625559346 91.8043860551317 -3.8016724435904
   endloop
endfacet
facet normal -2.6623181858005e-032 -5.55111512312578e-017 1.0
   outer loop
      vertex -75.7548748158957 94.2999101494069 -3.8016724435904
      vertex -70.4582625559346 91.8043860551317 -3.8016724435904
      vertex -70.4582625559346 93.7791717091535 -3.8016724435904
   endloop
endfacet
facet normal -2.6623181858005e-032 -5.55111512312578e-017 1.0
   outer loop
      vertex -70.4582625559346 93.7791717091535 -3.8016724435904
      vertex -70.4582625559346 91.8043860551317 -3.8016724435904
      vertex -64.7770640742808 92.3629352354201 -3.8016724435904
   endloop
endfacet
facet normal -2.6623181858005e-032 -5.55111512312578e-017 1.0
   outer loop
      vertex -70.4582625559346 93.7791717091535 -3.8016724435904
      vertex -64.7770640742808 92.3629352354201 -3.8016724435904
      vertex -65.1616502959736 94.2999101494069 -3.8016724435904
   endloop
endfacet
facet normal -2.6623181858005e-032 -5.55111512312578e-017 1.0
   outer loop
      vertex -65.1616502959736 94.2999101494069 -3.8016724435904
      vertex -64.7770640742808 92.3629352354201 -3.8016724435904
      vertex -60.0678639263255 95.8421845659477 -3.8016724435904
   endloop
endfacet
facet normal -2.6623181858005e-032 -5.55111512312578e-017 1.0
   outer loop
      vertex -60.0678639263255 95.8421845659477 -3.8016724435904
      vertex -64.7770640742808 92.3629352354201 -3.8016724435904
      vertex -59.3134186404114 94.0171939660014 -3.8016724435904
   endloop
endfacet
facet normal -2.6623181858005e-032 -5.55111512312578e-017 1.0
   outer loop
      vertex -60.0678639263255 95.8421845659477 -3.8016724435904
      vertex -59.3134186404114 94.0171939660014 -3.8016724435904
      vertex -55.3719624214409 98.346935853391 -3.8016724435904
   endloop
endfacet
facet normal -2.6623181858005e-032 -5.55111512312578e-017 1.0
   outer loop
      vertex -55.3719624214409 98.346935853391 -3.8016724435904
      vertex -59.3134186404114 94.0171939660014 -3.8016724435904
      vertex -54.2765484316523 96.7038148687081 -3.8016724435904
   endloop
endfacet
facet normal -2.6623181858005e-032 -5.55111512312578e-017 1.0
   outer loop
      vertex -55.3719624214409 98.346935853391 -3.8016724435904
      vertex -54.2765484316523 96.7038148687081 -3.8016724435904
      vertex -51.2537683465374 101.718248285806 -3.8016724435904
   endloop
endfacet
facet normal -2.6623181858005e-032 -5.55111512312578e-017 1.0
   outer loop
      vertex -51.2537683465374 101.718248285806 -3.8016724435904
      vertex -54.2765484316523 96.7038148687081 -3.8016724435904
      vertex -49.8593329027079 100.319917791137 -3.8016724435904
   endloop
endfacet
facet normal -2.6623181858005e-032 -5.55111512312578e-017 1.0
   outer loop
      vertex -51.2537683465374 101.718248285806 -3.8016724435904
      vertex -49.8593329027079 100.319917791137 -3.8016724435904
      vertex -47.8709818198661 105.827022466812 -3.8016724435904
   endloop
endfacet
facet normal -2.6623181858005e-032 -5.55111512312578e-017 1.0
   outer loop
      vertex -47.8709818198661 105.827022466812 -3.8016724435904
      vertex -49.8593329027079 100.319917791137 -3.8016724435904
      vertex -46.23092275376 104.727029449101 -3.8016724435904
   endloop
endfacet
facet normal -2.6623181858005e-032 -5.55111512312578e-017 1.0
   outer loop
      vertex -47.8709818198661 105.827022466812 -3.8016724435904
      vertex -46.23092275376 104.727029449101 -3.8016724435904
      vertex -45.760995060718 109.756386055132 -3.80167244359041
   endloop
endfacet
facet normal -2.6623181858005e-032 -5.55111512312578e-017 1.0
   outer loop
      vertex -45.760995060718 109.756386055132 -3.80167244359041
      vertex -46.23092275376 104.727029449101 -3.8016724435904
      vertex -43.5302625559346 109.756386055132 -3.80167244359041
   endloop
endfacet
facet normal -2.6623181858005e-032 -5.55111512312578e-017 1.0
   outer loop
      vertex -95.1555300511513 109.756386055132 -3.80167244359041
      vertex -94.6856023581093 114.785742661163 -3.8016724435904
      vertex -97.3862625559347 109.756386055132 -3.80167244359041
   endloop
endfacet
facet normal -2.6623181858005e-032 -5.55111512312578e-017 1.0
   outer loop
      vertex -94.6856023581093 114.785742661163 -3.8016724435904
      vertex -95.1555300511513 109.756386055132 -3.80167244359041
      vertex -93.0455432920033 113.685749643451 -3.8016724435904
   endloop
endfacet
facet normal -2.6623181858005e-032 -5.55111512312578e-017 1.0
   outer loop
      vertex -94.6856023581093 114.785742661163 -3.8016724435904
      vertex -93.0455432920033 113.685749643451 -3.8016724435904
      vertex -91.0571922091614 119.192854319126 -3.8016724435904
   endloop
endfacet
facet normal -2.6623181858005e-032 -5.55111512312578e-017 1.0
   outer loop
      vertex -91.0571922091614 119.192854319126 -3.8016724435904
      vertex -93.0455432920033 113.685749643451 -3.8016724435904
      vertex -89.6627567653318 117.794523824457 -3.8016724435904
   endloop
endfacet
facet normal -2.6623181858005e-032 -5.55111512312578e-017 1.0
   outer loop
      vertex -91.0571922091614 119.192854319126 -3.8016724435904
      vertex -89.6627567653318 117.794523824457 -3.8016724435904
      vertex -86.639976680217 122.808957241555 -3.8016724435904
   endloop
endfacet
facet normal -2.6623181858005e-032 -5.55111512312578e-017 1.0
   outer loop
      vertex -86.639976680217 122.808957241555 -3.8016724435904
      vertex -89.6627567653318 117.794523824457 -3.8016724435904
      vertex -85.5445626904284 121.165836256872 -3.8016724435904
   endloop
endfacet
facet normal -2.6623181858005e-032 -5.55111512312578e-017 1.0
   outer loop
      vertex -86.639976680217 122.808957241555 -3.8016724435904
      vertex -85.5445626904284 121.165836256872 -3.8016724435904
      vertex -81.6031064714578 125.495578144262 -3.8016724435904
   endloop
endfacet
facet normal -2.6623181858005e-032 -5.55111512312578e-017 1.0
   outer loop
      vertex -81.6031064714578 125.495578144262 -3.8016724435904
      vertex -85.5445626904284 121.165836256872 -3.8016724435904
      vertex -80.8486611855437 123.670587544316 -3.8016724435904
   endloop
endfacet
facet normal -2.6623181858005e-032 -5.55111512312578e-017 1.0
   outer loop
      vertex -81.6031064714578 125.495578144262 -3.8016724435904
      vertex -80.8486611855437 123.670587544316 -3.8016724435904
      vertex -76.1394610375885 127.149836874843 -3.8016724435904
   endloop
endfacet
facet normal -2.6623181858005e-032 -5.55111512312578e-017 1.0
   outer loop
      vertex -76.1394610375885 127.149836874843 -3.8016724435904
      vertex -80.8486611855437 123.670587544316 -3.8016724435904
      vertex -75.7548748158957 125.212861960856 -3.8016724435904
   endloop
endfacet
facet normal -2.6623181858005e-032 -5.55111512312578e-017 1.0
   outer loop
      vertex -76.1394610375885 127.149836874843 -3.8016724435904
      vertex -75.7548748158957 125.212861960856 -3.8016724435904
      vertex -70.4582625559347 127.708386055132 -3.8016724435904
   endloop
endfacet
facet normal -2.6623181858005e-032 -5.55111512312578e-017 1.0
   outer loop
      vertex -70.4582625559347 127.708386055132 -3.8016724435904
      vertex -75.7548748158957 125.212861960856 -3.8016724435904
      vertex -70.4582625559346 125.73360040111 -3.8016724435904
   endloop
endfacet
facet normal -2.6623181858005e-032 -5.55111512312578e-017 1.0
   outer loop
      vertex -70.4582625559347 127.708386055132 -3.8016724435904
      vertex -70.4582625559346 125.73360040111 -3.8016724435904
      vertex -64.7770640742808 127.149836874843 -3.8016724435904
   endloop
endfacet
facet normal -2.6623181858005e-032 -5.55111512312578e-017 1.0
   outer loop
      vertex -64.7770640742808 127.149836874843 -3.8016724435904
      vertex -70.4582625559346 125.73360040111 -3.8016724435904
      vertex -65.1616502959736 125.212861960856 -3.8016724435904
   endloop
endfacet
facet normal -2.6623181858005e-032 -5.55111512312578e-017 1.0
   outer loop
      vertex -64.7770640742808 127.149836874843 -3.8016724435904
      vertex -65.1616502959736 125.212861960856 -3.8016724435904
      vertex -60.0678639263255 123.670587544316 -3.8016724435904
   endloop
endfacet
facet normal -2.6623181858005e-032 -5.55111512312578e-017 1.0
   outer loop
      vertex -64.7770640742808 127.149836874843 -3.8016724435904
      vertex -60.0678639263255 123.670587544316 -3.8016724435904
      vertex -59.3134186404114 125.495578144262 -3.8016724435904
   endloop
endfacet
facet normal -2.6623181858005e-032 -5.55111512312578e-017 1.0
   outer loop
      vertex -59.3134186404114 125.495578144262 -3.8016724435904
      vertex -60.0678639263255 123.670587544316 -3.8016724435904
      vertex -55.3719624214409 121.165836256872 -3.8016724435904
   endloop
endfacet
facet normal -2.6623181858005e-032 -5.55111512312578e-017 1.0
   outer loop
      vertex -59.3134186404114 125.495578144262 -3.8016724435904
      vertex -55.3719624214409 121.165836256872 -3.8016724435904
      vertex -54.2765484316523 122.808957241555 -3.8016724435904
   endloop
endfacet
facet normal -2.6623181858005e-032 -5.55111512312578e-017 1.0
   outer loop
      vertex -54.2765484316523 122.808957241555 -3.8016724435904
      vertex -55.3719624214409 121.165836256872 -3.8016724435904
      vertex -51.2537683465375 117.794523824457 -3.8016724435904
   endloop
endfacet
facet normal -2.6623181858005e-032 -5.55111512312578e-017 1.0
   outer loop
      vertex -54.2765484316523 122.808957241555 -3.8016724435904
      vertex -51.2537683465375 117.794523824457 -3.8016724435904
      vertex -49.8593329027079 119.192854319126 -3.8016724435904
   endloop
endfacet
facet normal -2.6623181858005e-032 -5.55111512312578e-017 1.0
   outer loop
      vertex -49.8593329027079 119.192854319126 -3.8016724435904
      vertex -51.2537683465375 117.794523824457 -3.8016724435904
      vertex -47.8709818198661 113.685749643451 -3.8016724435904
   endloop
endfacet
facet normal -2.6623181858005e-032 -5.55111512312578e-017 1.0
   outer loop
      vertex -49.8593329027079 119.192854319126 -3.8016724435904
      vertex -47.8709818198661 113.685749643451 -3.8016724435904
      vertex -46.23092275376 114.785742661163 -3.8016724435904
   endloop
endfacet
facet normal -2.6623181858005e-032 -5.55111512312578e-017 1.0
   outer loop
      vertex -46.23092275376 114.785742661163 -3.8016724435904
      vertex -47.8709818198661 113.685749643451 -3.8016724435904
      vertex -45.760995060718 109.756386055132 -3.80167244359041
   endloop
endfacet
facet normal -2.6623181858005e-032 -5.55111512312578e-017 1.0
   outer loop
      vertex -46.23092275376 114.785742661163 -3.8016724435904
      vertex -45.760995060718 109.756386055132 -3.80167244359041
      vertex -43.5302625559346 109.756386055132 -3.80167244359041
   endloop
endfacet
facet normal 0.633449464448404 0.77378406289483 4.2953644135692e-017
   outer loop
      vertex -49.8593329027079 119.192854319126 -4.8016724435904
      vertex -54.2765484316523 122.808957241555 -3.8016724435904
      vertex -49.8593329027079 119.192854319126 -3.8016724435904
   endloop
endfacet
facet normal 0.633449464448404 0.77378406289483 4.2953644135692e-017
   outer loop
      vertex -54.2765484316523 122.808957241555 -3.8016724435904
      vertex -49.8593329027079 119.192854319126 -4.8016724435904
      vertex -54.2765484316523 122.808957241555 -4.8016724435904
   endloop
endfacet
facet normal 0.470627802499691 0.882331837527306 4.89792560691319e-017
   outer loop
      vertex -54.2765484316523 122.808957241555 -4.8016724435904
      vertex -59.3134186404114 125.495578144262 -3.8016724435904
      vertex -54.2765484316523 122.808957241555 -3.8016724435904
   endloop
endfacet
facet normal 0.470627802499691 0.882331837527306 4.89792560691319e-017
   outer loop
      vertex -59.3134186404114 125.495578144262 -3.8016724435904
      vertex -54.2765484316523 122.808957241555 -4.8016724435904
      vertex -59.3134186404114 125.495578144262 -4.8016724435904
   endloop
endfacet
facet normal -0.881015645005603 -0.47308713072262 -2.62616112591052e-017
   outer loop
      vertex -94.6856023581093 104.727029449101 -4.8016724435904
      vertex -97.3862625559347 109.756386055132 -3.80167244359041
      vertex -97.3862625559347 109.756386055132 -4.80167244359041
   endloop
endfacet
facet normal -0.881015645005603 -0.47308713072262 -2.62616112591052e-017
   outer loop
      vertex -97.3862625559347 109.756386055132 -3.80167244359041
      vertex -94.6856023581093 104.727029449101 -4.8016724435904
      vertex -94.6856023581093 104.727029449101 -3.8016724435904
   endloop
endfacet
endsolid colgante
