solid pulserav25-nuevohueco
facet normal 5.14276581193607e-015 -2.10358720681425e-006 -0.999999999997787
   outer loop
      vertex 1616.18515951443 1408.31271542879 -0.999999999997683
      vertex 1617.61252395783 1409.74007987218 -1.00000300258326
      vertex 1622.18515951443 1408.31271542879 -0.999999999997652
   endloop
endfacet
facet normal 5.14276581193607e-015 -2.10358720681425e-006 -0.999999999997787
   outer loop
      vertex 1617.61252395783 1409.74007987218 -1.00000300258326
      vertex 1616.18515951443 1408.31271542879 -0.999999999997683
      vertex 1616.18515951443 1432.31271542874 -1.00005048609065
   endloop
endfacet
facet normal 5.14276581193607e-015 -2.10358720681425e-006 -0.999999999997787
   outer loop
      vertex 1617.61252395783 1409.74007987218 -1.00000300258326
      vertex 1616.18515951443 1432.31271542874 -1.00005048609065
      vertex 1617.61252395783 1430.88535098534 -1.00004748350506
   endloop
endfacet
facet normal 5.14276581193607e-015 -2.10358720681425e-006 -0.999999999997787
   outer loop
      vertex 1617.61252395783 1430.88535098534 -1.00004748350506
      vertex 1616.18515951443 1432.31271542874 -1.00005048609065
      vertex 1620.75779507103 1430.88535098534 -1.00004748350504
   endloop
endfacet
facet normal 5.14276581193607e-015 -2.10358720681425e-006 -0.999999999997787
   outer loop
      vertex 1622.18515951443 1408.31271542879 -0.999999999997652
      vertex 1620.75779507103 1409.74007987218 -1.00000300258324
      vertex 1622.18515951443 1432.31271542874 -1.00005048609062
   endloop
endfacet
facet normal 5.14276581193607e-015 -2.10358720681425e-006 -0.999999999997787
   outer loop
      vertex 1620.75779507103 1409.74007987218 -1.00000300258324
      vertex 1622.18515951443 1408.31271542879 -0.999999999997652
      vertex 1617.61252395783 1409.74007987218 -1.00000300258326
   endloop
endfacet
facet normal 5.14276581193607e-015 -2.10358720681425e-006 -0.999999999997787
   outer loop
      vertex 1622.18515951443 1432.31271542874 -1.00005048609062
      vertex 1620.75779507103 1409.74007987218 -1.00000300258324
      vertex 1620.75779507103 1430.88535098534 -1.00004748350504
   endloop
endfacet
facet normal 5.14276581193607e-015 -2.10358720681425e-006 -0.999999999997787
   outer loop
      vertex 1622.18515951443 1432.31271542874 -1.00005048609062
      vertex 1620.75779507103 1430.88535098534 -1.00004748350504
      vertex 1616.18515951443 1432.31271542874 -1.00005048609065
   endloop
endfacet
facet normal 1.0 5.89805981832122e-016 5.14276457123913e-015
   outer loop
      vertex 1622.18515951443 1432.31271963591 0.999949513904959
      vertex 1622.18515951443 1408.31271542879 -0.999999999997652
      vertex 1622.18515951443 1432.31271542874 -1.00005048609062
   endloop
endfacet
facet normal 1.0 5.89805981832122e-016 5.14276457123913e-015
   outer loop
      vertex 1622.18515951443 1408.31271542879 -0.999999999997652
      vertex 1622.18515951443 1432.31271963591 0.999949513904959
      vertex 1622.18515951443 1408.31271963596 0.999999999997923
   endloop
endfacet
facet normal 5.89795163577058e-016 -0.999999999997787 2.10358720681425e-006
   outer loop
      vertex 1616.18515951443 1408.31271963596 0.999999999997891
      vertex 1622.18515951443 1408.31271542879 -0.999999999997652
      vertex 1622.18515951443 1408.31271963596 0.999999999997923
   endloop
endfacet
facet normal 5.89795163577058e-016 -0.999999999997787 2.10358720681425e-006
   outer loop
      vertex 1622.18515951443 1408.31271542879 -0.999999999997652
      vertex 1616.18515951443 1408.31271963596 0.999999999997891
      vertex 1616.18515951443 1408.31271542879 -0.999999999997683
   endloop
endfacet
facet normal -1.0 -5.89805981832122e-016 -5.14276457123913e-015
   outer loop
      vertex 1620.75779507103 1409.74008407936 0.999996997412333
      vertex 1620.75779507103 1430.88535098534 -1.00004748350504
      vertex 1620.75779507103 1409.74007987218 -1.00000300258324
   endloop
endfacet
facet normal -1.0 -5.89805981832122e-016 -5.14276457123913e-015
   outer loop
      vertex 1620.75779507103 1430.88535098534 -1.00004748350504
      vertex 1620.75779507103 1409.74008407936 0.999996997412333
      vertex 1620.75779507103 1430.88535519251 0.999952516490534
   endloop
endfacet
facet normal -1.0 -5.89805981832122e-016 -5.14276457123913e-015
   outer loop
      vertex 1616.18515951443 1408.31271963596 0.999999999997891
      vertex 1616.18515951443 1432.31271542874 -1.00005048609065
      vertex 1616.18515951443 1408.31271542879 -0.999999999997683
   endloop
endfacet
facet normal -1.0 -5.89805981832122e-016 -5.14276457123913e-015
   outer loop
      vertex 1616.18515951443 1432.31271542874 -1.00005048609065
      vertex 1616.18515951443 1408.31271963596 0.999999999997891
      vertex 1616.18515951443 1432.31271963591 0.999949513904928
   endloop
endfacet
facet normal 1.0 5.89805981832122e-016 5.14276457123913e-015
   outer loop
      vertex 1617.61252395783 1430.88535519251 0.999952516490518
      vertex 1617.61252395783 1409.74007987218 -1.00000300258326
      vertex 1617.61252395783 1430.88535098534 -1.00004748350506
   endloop
endfacet
facet normal 1.0 5.89805981832122e-016 5.14276457123913e-015
   outer loop
      vertex 1617.61252395783 1409.74007987218 -1.00000300258326
      vertex 1617.61252395783 1430.88535519251 0.999952516490518
      vertex 1617.61252395783 1409.74008407936 0.999996997412317
   endloop
endfacet
facet normal -5.89795163577058e-016 0.999999999997787 -2.10358720681425e-006
   outer loop
      vertex 1617.61252395783 1409.74007987218 -1.00000300258326
      vertex 1620.75779507103 1409.74008407936 0.999996997412333
      vertex 1620.75779507103 1409.74007987218 -1.00000300258324
   endloop
endfacet
facet normal -5.89795163577058e-016 0.999999999997787 -2.10358720681425e-006
   outer loop
      vertex 1620.75779507103 1409.74008407936 0.999996997412333
      vertex 1617.61252395783 1409.74007987218 -1.00000300258326
      vertex 1617.61252395783 1409.74008407936 0.999996997412317
   endloop
endfacet
facet normal -5.14276581193607e-015 2.10358720681425e-006 0.999999999997787
   outer loop
      vertex 1622.18515951443 1432.31271963591 0.999949513904959
      vertex 1620.75779507103 1409.74008407936 0.999996997412333
      vertex 1622.18515951443 1408.31271963596 0.999999999997923
   endloop
endfacet
facet normal -5.14276581193607e-015 2.10358720681425e-006 0.999999999997787
   outer loop
      vertex 1620.75779507103 1409.74008407936 0.999996997412333
      vertex 1622.18515951443 1432.31271963591 0.999949513904959
      vertex 1620.75779507103 1430.88535519251 0.999952516490534
   endloop
endfacet
facet normal -5.14276581193607e-015 2.10358720681425e-006 0.999999999997787
   outer loop
      vertex 1620.75779507103 1430.88535519251 0.999952516490534
      vertex 1622.18515951443 1432.31271963591 0.999949513904959
      vertex 1617.61252395783 1430.88535519251 0.999952516490518
   endloop
endfacet
facet normal -5.14276581193607e-015 2.10358720681425e-006 0.999999999997787
   outer loop
      vertex 1616.18515951443 1408.31271963596 0.999999999997891
      vertex 1617.61252395783 1409.74008407936 0.999996997412317
      vertex 1616.18515951443 1432.31271963591 0.999949513904928
   endloop
endfacet
facet normal -5.14276581193607e-015 2.10358720681425e-006 0.999999999997787
   outer loop
      vertex 1617.61252395783 1409.74008407936 0.999996997412317
      vertex 1616.18515951443 1408.31271963596 0.999999999997891
      vertex 1622.18515951443 1408.31271963596 0.999999999997923
   endloop
endfacet
facet normal -5.14276581193607e-015 2.10358720681425e-006 0.999999999997787
   outer loop
      vertex 1617.61252395783 1409.74008407936 0.999996997412317
      vertex 1622.18515951443 1408.31271963596 0.999999999997923
      vertex 1620.75779507103 1409.74008407936 0.999996997412333
   endloop
endfacet
facet normal -5.14276581193607e-015 2.10358720681425e-006 0.999999999997787
   outer loop
      vertex 1616.18515951443 1432.31271963591 0.999949513904928
      vertex 1617.61252395783 1409.74008407936 0.999996997412317
      vertex 1617.61252395783 1430.88535519251 0.999952516490518
   endloop
endfacet
facet normal -5.14276581193607e-015 2.10358720681425e-006 0.999999999997787
   outer loop
      vertex 1616.18515951443 1432.31271963591 0.999949513904928
      vertex 1617.61252395783 1430.88535519251 0.999952516490518
      vertex 1622.18515951443 1432.31271963591 0.999949513904959
   endloop
endfacet
facet normal 5.89795163577058e-016 -0.999999999997787 2.10358720681425e-006
   outer loop
      vertex 1617.61252395783 1430.88535519251 0.999952516490518
      vertex 1620.75779507103 1430.88535098534 -1.00004748350504
      vertex 1620.75779507103 1430.88535519251 0.999952516490534
   endloop
endfacet
facet normal 5.89795163577058e-016 -0.999999999997787 2.10358720681425e-006
   outer loop
      vertex 1620.75779507103 1430.88535098534 -1.00004748350504
      vertex 1617.61252395783 1430.88535519251 0.999952516490518
      vertex 1617.61252395783 1430.88535098534 -1.00004748350506
   endloop
endfacet
facet normal -5.89795163577058e-016 0.999999999997787 -2.10358720681425e-006
   outer loop
      vertex 1616.18515951443 1432.31271542874 -1.00005048609065
      vertex 1622.18515951443 1432.31271963591 0.999949513904959
      vertex 1622.18515951443 1432.31271542874 -1.00005048609062
   endloop
endfacet
facet normal -5.89795163577058e-016 0.999999999997787 -2.10358720681425e-006
   outer loop
      vertex 1622.18515951443 1432.31271963591 0.999949513904959
      vertex 1616.18515951443 1432.31271542874 -1.00005048609065
      vertex 1616.18515951443 1432.31271963591 0.999949513904928
   endloop
endfacet
endsolid pulserav25-nuevohueco
