solid colgante
facet normal 0.0 0.0 1.0
   outer loop
      vertex -21.4900005681409 117.076223524757 -4.84481566579257
      vertex -27.4011355678572 122.48992780921 -4.84481566579257
      vertex -27.4011355678572 117.076223524757 -4.84481566579257
   endloop
endfacet
facet normal 0.0 0.0 1.0
   outer loop
      vertex -27.4011355678572 122.48992780921 -4.84481566579257
      vertex -21.4900005681409 117.076223524757 -4.84481566579257
      vertex -23.0518877987356 119.360852850496 -4.84481566579257
   endloop
endfacet
facet normal 0.0 0.0 1.0
   outer loop
      vertex -23.0518877987356 119.360852850496 -4.84481566579257
      vertex -21.4900005681409 117.076223524757 -4.84481566579257
      vertex -21.4900005681409 119.360852850496 -4.84481566579257
   endloop
endfacet
facet normal 0.0 0.0 1.0
   outer loop
      vertex -27.4011355678572 122.48992780921 -4.84481566579257
      vertex -23.0518877987356 120.360852850496 -4.84481566579257
      vertex -21.4900005681409 122.48992780921 -4.84481566579257
   endloop
endfacet
facet normal 0.0 0.0 1.0
   outer loop
      vertex -23.0518877987356 120.360852850496 -4.84481566579257
      vertex -27.4011355678572 122.48992780921 -4.84481566579257
      vertex -23.0518877987356 119.360852850496 -4.84481566579257
   endloop
endfacet
facet normal 0.0 0.0 1.0
   outer loop
      vertex -21.4900005681409 122.48992780921 -4.84481566579257
      vertex -23.0518877987356 120.360852850496 -4.84481566579257
      vertex -21.4900005681409 120.360852850496 -4.84481566579257
   endloop
endfacet
facet normal -1.0 0.0 0.0
   outer loop
      vertex -27.4011355678572 122.48992780921 -4.84481566579257
      vertex -27.4011355678572 117.076223524757 -5.84481566579257
      vertex -27.4011355678572 117.076223524757 -4.84481566579257
   endloop
endfacet
facet normal -1.0 0.0 0.0
   outer loop
      vertex -27.4011355678572 117.076223524757 -5.84481566579257
      vertex -27.4011355678572 122.48992780921 -4.84481566579257
      vertex -27.4011355678572 122.48992780921 -5.84481566579257
   endloop
endfacet
facet normal 1.0 0.0 0.0
   outer loop
      vertex -21.4900005681409 117.076223524757 -5.84481566579257
      vertex -21.4900005681409 119.360852850496 -5.72415584524612
      vertex -21.4900005681409 117.076223524757 -4.84481566579257
   endloop
endfacet
facet normal 1.0 0.0 0.0
   outer loop
      vertex -21.4900005681409 119.360852850496 -5.72415584524612
      vertex -21.4900005681409 117.076223524757 -5.84481566579257
      vertex -21.4900005681409 122.48992780921 -5.84481566579257
   endloop
endfacet
facet normal 1.0 0.0 0.0
   outer loop
      vertex -21.4900005681409 119.360852850496 -5.72415584524612
      vertex -21.4900005681409 122.48992780921 -5.84481566579257
      vertex -21.4900005681409 120.360852850496 -5.7241558452461
   endloop
endfacet
facet normal 1.0 0.0 0.0
   outer loop
      vertex -21.4900005681409 120.360852850496 -5.7241558452461
      vertex -21.4900005681409 122.48992780921 -5.84481566579257
      vertex -21.4900005681409 120.360852850496 -4.84481566579257
   endloop
endfacet
facet normal 1.0 0.0 0.0
   outer loop
      vertex -21.4900005681409 120.360852850496 -4.84481566579257
      vertex -21.4900005681409 122.48992780921 -5.84481566579257
      vertex -21.4900005681409 122.48992780921 -4.84481566579257
   endloop
endfacet
facet normal 1.0 0.0 0.0
   outer loop
      vertex -21.4900005681409 119.360852850496 -4.84481566579257
      vertex -21.4900005681409 117.076223524757 -4.84481566579257
      vertex -21.4900005681409 119.360852850496 -5.72415584524612
   endloop
endfacet
facet normal -0.0 -1.0 -0.0
   outer loop
      vertex -21.4900005681409 117.076223524757 -4.84481566579257
      vertex -27.4011355678572 117.076223524757 -5.84481566579257
      vertex -21.4900005681409 117.076223524757 -5.84481566579257
   endloop
endfacet
facet normal -0.0 -1.0 -0.0
   outer loop
      vertex -27.4011355678572 117.076223524757 -5.84481566579257
      vertex -21.4900005681409 117.076223524757 -4.84481566579257
      vertex -27.4011355678572 117.076223524757 -4.84481566579257
   endloop
endfacet
facet normal 0.0 0.0 -1.0
   outer loop
      vertex -21.4900005681409 122.48992780921 -5.84481566579257
      vertex -27.4011355678572 117.076223524757 -5.84481566579257
      vertex -27.4011355678572 122.48992780921 -5.84481566579257
   endloop
endfacet
facet normal 0.0 0.0 -1.0
   outer loop
      vertex -27.4011355678572 117.076223524757 -5.84481566579257
      vertex -21.4900005681409 122.48992780921 -5.84481566579257
      vertex -21.4900005681409 117.076223524757 -5.84481566579257
   endloop
endfacet
facet normal 0.0 1.0 0.0
   outer loop
      vertex -27.4011355678572 122.48992780921 -4.84481566579257
      vertex -21.4900005681409 122.48992780921 -5.84481566579257
      vertex -27.4011355678572 122.48992780921 -5.84481566579257
   endloop
endfacet
facet normal 0.0 1.0 0.0
   outer loop
      vertex -21.4900005681409 122.48992780921 -5.84481566579257
      vertex -27.4011355678572 122.48992780921 -4.84481566579257
      vertex -21.4900005681409 122.48992780921 -4.84481566579257
   endloop
endfacet
facet normal 0.98542012844874 -8.97236429844651e-017 -0.170138680046804
   outer loop
      vertex -22.9143565931998 120.360852850496 -1.88510446780012
      vertex -22.7303840740154 119.360852850496 -1.29428716544169
      vertex -22.9143565931998 119.360852850496 -1.88510446780012
   endloop
endfacet
facet normal 0.98542012844874 -8.97236429844651e-017 -0.170138680046804
   outer loop
      vertex -22.7303840740154 119.360852850496 -1.29428716544169
      vertex -22.9143565931998 120.360852850496 -1.88510446780012
      vertex -22.7303840740154 120.360852850496 -1.29428716544169
   endloop
endfacet
facet normal 0.907807621109001 -2.21166140784144e-016 -0.419386841777871
   outer loop
      vertex -22.7303840740154 120.360852850496 -1.29428716544169
      vertex -22.3997654963813 119.360852850496 -0.7712170662157
      vertex -22.7303840740154 119.360852850496 -1.29428716544169
   endloop
endfacet
facet normal 0.907807621109001 -2.21166140784144e-016 -0.419386841777871
   outer loop
      vertex -22.3997654963813 119.360852850496 -0.7712170662157
      vertex -22.7303840740154 120.360852850496 -1.29428716544169
      vertex -22.3997654963813 120.360852850496 -0.7712170662157
   endloop
endfacet
facet normal -0.17013868004678 4.35485612669979e-015 -0.985420128448744
   outer loop
      vertex -21.1879609883676 120.360852850496 -5.81820688634201
      vertex -21.4900005681409 119.360852850496 -5.72415584524612
      vertex -21.4900005681409 120.360852850496 -5.7241558452461
   endloop
endfacet
facet normal -0.17013868004678 4.35485612669979e-015 -0.985420128448744
   outer loop
      vertex -21.4900005681409 119.360852850496 -5.72415584524612
      vertex -21.1879609883676 120.360852850496 -5.81820688634201
      vertex -21.1879609883676 119.360852850496 -5.81820688634201
   endloop
endfacet
facet normal 0.170138680046803 5.19667154878113e-016 0.98542012844874
   outer loop
      vertex -19.9690767245893 119.360852850496 1.24140523387695
      vertex -20.9034239955327 120.360852850496 1.27886523963968
      vertex -20.9034239955327 119.360852850496 1.27886523963968
   endloop
endfacet
facet normal 0.170138680046803 5.19667154878113e-016 0.98542012844874
   outer loop
      vertex -20.9034239955327 120.360852850496 1.27886523963968
      vertex -19.9690767245893 119.360852850496 1.24140523387695
      vertex -19.9690767245893 120.360852850496 1.24140523387695
   endloop
endfacet
facet normal 0.768329524613744 -3.37536531583681e-016 -0.64005448331124
   outer loop
      vertex -17.8263382039359 120.360852850496 -4.58109622463976
      vertex -18.5135097193013 119.360852850496 -5.21529129180886
      vertex -18.5135097193013 120.360852850496 -5.21529129180886
   endloop
endfacet
facet normal 0.768329524613744 -3.37536531583681e-016 -0.64005448331124
   outer loop
      vertex -18.5135097193013 119.360852850496 -5.21529129180886
      vertex -17.8263382039359 120.360852850496 -4.58109622463976
      vertex -17.8263382039359 119.360852850496 -4.58109622463976
   endloop
endfacet
facet normal 0.57649104074059 -4.30904365561313e-016 -0.817103469547053
   outer loop
      vertex -18.5135097193013 120.360852850496 -5.21529129180886
      vertex -19.3414081947762 119.360852850496 -5.65002361066411
      vertex -19.3414081947762 120.360852850496 -5.65002361066411
   endloop
endfacet
facet normal 0.57649104074059 -4.30904365561313e-016 -0.817103469547053
   outer loop
      vertex -19.3414081947762 119.360852850496 -5.65002361066411
      vertex -18.5135097193013 120.360852850496 -5.21529129180886
      vertex -18.5135097193013 119.360852850496 -5.21529129180886
   endloop
endfacet
facet normal -0.907807621109008 2.21166140784136e-016 0.419386841777856
   outer loop
      vertex -23.830314461109 120.360852850496 -0.78614389753751
      vertex -24.1083249165879 119.360852850496 -1.67895869434342
      vertex -23.830314461109 119.360852850496 -0.78614389753751
   endloop
endfacet
facet normal -0.907807621109008 2.21166140784136e-016 0.419386841777856
   outer loop
      vertex -24.1083249165879 119.360852850496 -1.67895869434342
      vertex -23.830314461109 120.360852850496 -0.78614389753751
      vertex -24.1083249165879 120.360852850496 -1.67895869434342
   endloop
endfacet
facet normal 0.0 1.0 0.0
   outer loop
      vertex -23.5054093220548 120.360852850496 -4.35340996340974
      vertex -21.4900005681409 120.360852850496 -4.84481566579257
      vertex -23.0518877987356 120.360852850496 -4.84481566579257
   endloop
endfacet
facet normal 0.0 1.0 0.0
   outer loop
      vertex -21.4900005681409 120.360852850496 -4.84481566579257
      vertex -23.5054093220548 120.360852850496 -4.35340996340974
      vertex -20.9818152149108 120.360852850496 -4.6242385629538
   endloop
endfacet
facet normal 0.0 1.0 0.0
   outer loop
      vertex -21.4900005681409 120.360852850496 -4.84481566579257
      vertex -20.9818152149108 120.360852850496 -4.6242385629538
      vertex -20.3635139322039 120.360852850496 -4.64902760053504
   endloop
endfacet
facet normal 0.0 1.0 0.0
   outer loop
      vertex -20.9818152149108 120.360852850496 -4.6242385629538
      vertex -23.5054093220548 120.360852850496 -4.35340996340974
      vertex -21.5726325172692 120.360852850496 -4.4402660437694
   endloop
endfacet
facet normal 0.0 1.0 0.0
   outer loop
      vertex -21.5726325172692 120.360852850496 -4.4402660437694
      vertex -23.5054093220548 120.360852850496 -4.35340996340974
      vertex -22.0957026164953 120.360852850496 -4.10964746613535
   endloop
endfacet
facet normal 0.0 1.0 0.0
   outer loop
      vertex -22.0957026164953 120.360852850496 -4.10964746613535
      vertex -23.5054093220548 120.360852850496 -4.35340996340974
      vertex -23.9401416409101 120.360852850496 -3.52551148793478
   endloop
endfacet
facet normal 0.0 1.0 0.0
   outer loop
      vertex -22.0957026164953 120.360852850496 -4.10964746613535
      vertex -23.9401416409101 120.360852850496 -3.52551148793478
      vertex -22.5153791497409 120.360852850496 -3.65491393974421
   endloop
endfacet
facet normal 0.0 1.0 0.0
   outer loop
      vertex -22.5153791497409 120.360852850496 -3.65491393974421
      vertex -23.9401416409101 120.360852850496 -3.52551148793478
      vertex -22.8030618548136 120.360852850496 -3.10705480293704
   endloop
endfacet
facet normal 0.0 1.0 0.0
   outer loop
      vertex -22.8030618548136 120.360852850496 -3.10705480293704
      vertex -23.9401416409101 120.360852850496 -3.52551148793478
      vertex -24.1457849223506 120.360852850496 -2.61330596528673
   endloop
endfacet
facet normal 0.0 1.0 0.0
   outer loop
      vertex -22.8030618548136 120.360852850496 -3.10705480293704
      vertex -24.1457849223506 120.360852850496 -2.61330596528673
      vertex -22.939145630781 120.360852850496 -2.50340575050698
   endloop
endfacet
facet normal 0.0 1.0 0.0
   outer loop
      vertex -22.939145630781 120.360852850496 -2.50340575050698
      vertex -24.1457849223506 120.360852850496 -2.61330596528673
      vertex -24.1083249165879 120.360852850496 -1.67895869434342
   endloop
endfacet
facet normal 0.0 1.0 0.0
   outer loop
      vertex -22.939145630781 120.360852850496 -2.50340575050698
      vertex -24.1083249165879 120.360852850496 -1.67895869434342
      vertex -22.9143565931998 120.360852850496 -1.88510446780012
   endloop
endfacet
facet normal 0.0 1.0 0.0
   outer loop
      vertex -22.9143565931998 120.360852850496 -1.88510446780012
      vertex -24.1083249165879 120.360852850496 -1.67895869434342
      vertex -22.7303840740154 120.360852850496 -1.29428716544169
   endloop
endfacet
facet normal 0.0 1.0 0.0
   outer loop
      vertex -22.7303840740154 120.360852850496 -1.29428716544169
      vertex -24.1083249165879 120.360852850496 -1.67895869434342
      vertex -23.830314461109 120.360852850496 -0.78614389753751
   endloop
endfacet
facet normal 0.0 1.0 0.0
   outer loop
      vertex -22.7303840740154 120.360852850496 -1.29428716544169
      vertex -23.830314461109 120.360852850496 -0.78614389753751
      vertex -22.3997654963813 120.360852850496 -0.7712170662157
   endloop
endfacet
facet normal 0.0 1.0 0.0
   outer loop
      vertex -22.3997654963813 120.360852850496 -0.7712170662157
      vertex -23.830314461109 120.360852850496 -0.78614389753751
      vertex -23.3306995090209 120.360852850496 0.00429457217477243
   endloop
endfacet
facet normal 0.0 1.0 0.0
   outer loop
      vertex -22.3997654963813 120.360852850496 -0.7712170662157
      vertex -23.3306995090209 120.360852850496 0.00429457217477243
      vertex -21.9450319699902 120.360852850496 -0.351540532970036
   endloop
endfacet
facet normal 0.0 1.0 0.0
   outer loop
      vertex -21.9450319699902 120.360852850496 -0.351540532970036
      vertex -23.3306995090209 120.360852850496 0.00429457217477243
      vertex -21.397172833183 120.360852850496 -0.0638578278972991
   endloop
endfacet
facet normal 0.0 1.0 0.0
   outer loop
      vertex -21.397172833183 120.360852850496 -0.0638578278972991
      vertex -23.3306995090209 120.360852850496 0.00429457217477243
      vertex -20.7935237807529 120.360852850496 0.0722259480700281
   endloop
endfacet
facet normal 0.0 1.0 0.0
   outer loop
      vertex -20.7935237807529 120.360852850496 0.0722259480700281
      vertex -23.3306995090209 120.360852850496 0.00429457217477243
      vertex -22.6435279936556 120.360852850496 0.638489639343872
   endloop
endfacet
facet normal 0.0 1.0 0.0
   outer loop
      vertex -20.7935237807529 120.360852850496 0.0722259480700281
      vertex -22.6435279936556 120.360852850496 0.638489639343872
      vertex -18.2858234580712 120.360852850496 0.463779826310037
   endloop
endfacet
facet normal 0.0 1.0 0.0
   outer loop
      vertex -18.2858234580712 120.360852850496 0.463779826310037
      vertex -22.6435279936556 120.360852850496 0.638489639343872
      vertex -19.0762619277835 120.360852850496 0.96339477839812
   endloop
endfacet
facet normal 0.0 1.0 0.0
   outer loop
      vertex -19.0762619277835 120.360852850496 0.96339477839812
      vertex -22.6435279936556 120.360852850496 0.638489639343872
      vertex -21.8156295181807 120.360852850496 1.07322195819908
   endloop
endfacet
facet normal 0.0 1.0 0.0
   outer loop
      vertex -19.0762619277835 120.360852850496 0.96339477839812
      vertex -21.8156295181807 120.360852850496 1.07322195819908
      vertex -19.9690767245893 120.360852850496 1.24140523387695
   endloop
endfacet
facet normal 0.0 1.0 0.0
   outer loop
      vertex -19.9690767245893 120.360852850496 1.24140523387695
      vertex -21.8156295181807 120.360852850496 1.07322195819908
      vertex -20.9034239955327 120.360852850496 1.27886523963968
   endloop
endfacet
facet normal 0.0 1.0 0.0
   outer loop
      vertex -21.1879609883676 120.360852850496 -5.81820688634201
      vertex -19.3414081947762 120.360852850496 -5.65002361066411
      vertex -20.2536137174242 120.360852850496 -5.85566689210465
   endloop
endfacet
facet normal 0.0 1.0 0.0
   outer loop
      vertex -19.3414081947762 120.360852850496 -5.65002361066411
      vertex -21.1879609883676 120.360852850496 -5.81820688634201
      vertex -21.4900005681409 120.360852850496 -5.7241558452461
   endloop
endfacet
facet normal 0.0 1.0 0.0
   outer loop
      vertex -19.3414081947762 120.360852850496 -5.65002361066411
      vertex -21.4900005681409 120.360852850496 -5.7241558452461
      vertex -21.4900005681409 120.360852850496 -4.84481566579257
   endloop
endfacet
facet normal 0.0 1.0 0.0
   outer loop
      vertex -19.3414081947762 120.360852850496 -5.65002361066411
      vertex -21.4900005681409 120.360852850496 -4.84481566579257
      vertex -18.5135097193013 120.360852850496 -5.21529129180886
   endloop
endfacet
facet normal 0.0 1.0 0.0
   outer loop
      vertex -18.5135097193013 120.360852850496 -5.21529129180886
      vertex -21.4900005681409 120.360852850496 -4.84481566579257
      vertex -17.8263382039359 120.360852850496 -4.58109622463976
   endloop
endfacet
facet normal 0.0 1.0 0.0
   outer loop
      vertex -17.8263382039359 120.360852850496 -4.58109622463976
      vertex -21.4900005681409 120.360852850496 -4.84481566579257
      vertex -20.3635139322039 120.360852850496 -4.64902760053504
   endloop
endfacet
facet normal 0.0 1.0 0.0
   outer loop
      vertex -17.8263382039359 120.360852850496 -4.58109622463976
      vertex -20.3635139322039 120.360852850496 -4.64902760053504
      vertex -19.7598648797739 120.360852850496 -4.51294382456769
   endloop
endfacet
facet normal 0.0 1.0 0.0
   outer loop
      vertex -17.8263382039359 120.360852850496 -4.58109622463976
      vertex -19.7598648797739 120.360852850496 -4.51294382456769
      vertex -17.3267232518478 120.360852850496 -3.79065775492741
   endloop
endfacet
facet normal 0.0 1.0 0.0
   outer loop
      vertex -17.3267232518478 120.360852850496 -3.79065775492741
      vertex -19.7598648797739 120.360852850496 -4.51294382456769
      vertex -19.2120057429667 120.360852850496 -4.22526111949491
   endloop
endfacet
facet normal 0.0 1.0 0.0
   outer loop
      vertex -17.3267232518478 120.360852850496 -3.79065775492741
      vertex -19.2120057429667 120.360852850496 -4.22526111949491
      vertex -18.7572722165756 120.360852850496 -3.80558458624929
   endloop
endfacet
facet normal 0.0 1.0 0.0
   outer loop
      vertex -17.3267232518478 120.360852850496 -3.79065775492741
      vertex -18.7572722165756 120.360852850496 -3.80558458624929
      vertex -18.4266536389415 120.360852850496 -3.28251448702325
   endloop
endfacet
facet normal 0.0 1.0 0.0
   outer loop
      vertex -17.3267232518478 120.360852850496 -3.79065775492741
      vertex -18.4266536389415 120.360852850496 -3.28251448702325
      vertex -17.048712796369 120.360852850496 -2.89784295812159
   endloop
endfacet
facet normal 0.0 1.0 0.0
   outer loop
      vertex -17.048712796369 120.360852850496 -2.89784295812159
      vertex -18.4266536389415 120.360852850496 -3.28251448702325
      vertex -18.2426811197571 120.360852850496 -2.69169718466481
   endloop
endfacet
facet normal 0.0 1.0 0.0
   outer loop
      vertex -17.048712796369 120.360852850496 -2.89784295812159
      vertex -18.2426811197571 120.360852850496 -2.69169718466481
      vertex -17.0112527906063 120.360852850496 -1.96349568717819
   endloop
endfacet
facet normal 0.0 1.0 0.0
   outer loop
      vertex -17.0112527906063 120.360852850496 -1.96349568717819
      vertex -18.2426811197571 120.360852850496 -2.69169718466481
      vertex -18.2178920821759 120.360852850496 -2.07339590195801
   endloop
endfacet
facet normal 0.0 1.0 0.0
   outer loop
      vertex -17.0112527906063 120.360852850496 -1.96349568717819
      vertex -18.2178920821759 120.360852850496 -2.07339590195801
      vertex -18.3539758581433 120.360852850496 -1.46974684952792
   endloop
endfacet
facet normal 0.0 1.0 0.0
   outer loop
      vertex -17.0112527906063 120.360852850496 -1.96349568717819
      vertex -18.3539758581433 120.360852850496 -1.46974684952792
      vertex -17.2168960720468 120.360852850496 -1.05129016453028
   endloop
endfacet
facet normal 0.0 1.0 0.0
   outer loop
      vertex -17.2168960720468 120.360852850496 -1.05129016453028
      vertex -18.3539758581433 120.360852850496 -1.46974684952792
      vertex -18.641658563216 120.360852850496 -0.921887712720695
   endloop
endfacet
facet normal 0.0 1.0 0.0
   outer loop
      vertex -17.2168960720468 120.360852850496 -1.05129016453028
      vertex -18.641658563216 120.360852850496 -0.921887712720695
      vertex -17.6516283909021 120.360852850496 -0.223391689055294
   endloop
endfacet
facet normal 0.0 1.0 0.0
   outer loop
      vertex -17.6516283909021 120.360852850496 -0.223391689055294
      vertex -18.641658563216 120.360852850496 -0.921887712720695
      vertex -19.0613350964617 120.360852850496 -0.467154186329552
   endloop
endfacet
facet normal 0.0 1.0 0.0
   outer loop
      vertex -17.6516283909021 120.360852850496 -0.223391689055294
      vertex -19.0613350964617 120.360852850496 -0.467154186329552
      vertex -19.5844051956877 120.360852850496 -0.136535608695474
   endloop
endfacet
facet normal 0.0 1.0 0.0
   outer loop
      vertex -17.6516283909021 120.360852850496 -0.223391689055294
      vertex -19.5844051956877 120.360852850496 -0.136535608695474
      vertex -18.2858234580712 120.360852850496 0.463779826310037
   endloop
endfacet
facet normal 0.0 1.0 0.0
   outer loop
      vertex -18.2858234580712 120.360852850496 0.463779826310037
      vertex -19.5844051956877 120.360852850496 -0.136535608695474
      vertex -20.1752224980461 120.360852850496 0.0474369104889037
   endloop
endfacet
facet normal 0.0 1.0 0.0
   outer loop
      vertex -18.2858234580712 120.360852850496 0.463779826310037
      vertex -20.1752224980461 120.360852850496 0.0474369104889037
      vertex -20.7935237807529 120.360852850496 0.0722259480700281
   endloop
endfacet
facet normal 0.938468204660539 1.8213062329442e-016 0.345365645137476
   outer loop
      vertex -17.2168960720468 120.360852850496 -1.05129016453028
      vertex -17.6516283909021 119.360852850496 -0.223391689055293
      vertex -17.2168960720468 119.360852850496 -1.05129016453028
   endloop
endfacet
facet normal 0.938468204660539 1.8213062329442e-016 0.345365645137476
   outer loop
      vertex -17.6516283909021 119.360852850496 -0.223391689055293
      vertex -17.2168960720468 120.360852850496 -1.05129016453028
      vertex -17.6516283909021 120.360852850496 -0.223391689055294
   endloop
endfacet
facet normal 0.817103469547055 3.04015972787151e-016 0.576491040740587
   outer loop
      vertex -17.6516283909021 120.360852850496 -0.223391689055294
      vertex -18.2858234580712 119.360852850496 0.463779826310038
      vertex -17.6516283909021 119.360852850496 -0.223391689055293
   endloop
endfacet
facet normal 0.817103469547055 3.04015972787151e-016 0.576491040740587
   outer loop
      vertex -18.2858234580712 119.360852850496 0.463779826310038
      vertex -17.6516283909021 120.360852850496 -0.223391689055294
      vertex -18.2858234580712 120.360852850496 0.463779826310037
   endloop
endfacet
facet normal 0.640054483311253 4.05183136144597e-016 0.768329524613733
   outer loop
      vertex -18.2858234580712 119.360852850496 0.463779826310038
      vertex -19.0762619277835 120.360852850496 0.96339477839812
      vertex -19.0762619277835 119.360852850496 0.96339477839812
   endloop
endfacet
facet normal 0.640054483311253 4.05183136144597e-016 0.768329524613733
   outer loop
      vertex -19.0762619277835 120.360852850496 0.96339477839812
      vertex -18.2858234580712 119.360852850496 0.463779826310038
      vertex -18.2858234580712 120.360852850496 0.463779826310037
   endloop
endfacet
facet normal -0.57649104074058 4.30904365561317e-016 0.81710346954706
   outer loop
      vertex -22.6435279936556 119.360852850496 0.638489639343872
      vertex -23.3306995090209 120.360852850496 0.00429457217477243
      vertex -23.3306995090209 119.360852850496 0.00429457217477314
   endloop
endfacet
facet normal -0.57649104074058 4.30904365561317e-016 0.81710346954706
   outer loop
      vertex -23.3306995090209 120.360852850496 0.00429457217477243
      vertex -22.6435279936556 119.360852850496 0.638489639343872
      vertex -22.6435279936556 120.360852850496 0.638489639343872
   endloop
endfacet
facet normal 0.0907041515619893 -5.25182113571288e-016 -0.995877882518444
   outer loop
      vertex -20.2536137174242 120.360852850496 -5.85566689210465
      vertex -21.1879609883676 119.360852850496 -5.81820688634201
      vertex -21.1879609883676 120.360852850496 -5.81820688634201
   endloop
endfacet
facet normal 0.0907041515619893 -5.25182113571288e-016 -0.995877882518444
   outer loop
      vertex -21.1879609883676 119.360852850496 -5.81820688634201
      vertex -20.2536137174242 120.360852850496 -5.85566689210465
      vertex -20.2536137174242 119.360852850496 -5.85566689210465
   endloop
endfacet
facet normal 0.907807621109022 -2.2116614078412e-016 -0.419386841777825
   outer loop
      vertex -17.3267232518478 120.360852850496 -3.79065775492741
      vertex -17.048712796369 119.360852850496 -2.89784295812159
      vertex -17.3267232518478 119.360852850496 -3.79065775492741
   endloop
endfacet
facet normal 0.907807621109022 -2.2116614078412e-016 -0.419386841777825
   outer loop
      vertex -17.048712796369 119.360852850496 -2.89784295812159
      vertex -17.3267232518478 120.360852850496 -3.79065775492741
      vertex -17.048712796369 120.360852850496 -2.89784295812159
   endloop
endfacet
facet normal 0.345365645137458 -4.94906779129066e-016 -0.938468204660545
   outer loop
      vertex -19.3414081947762 120.360852850496 -5.65002361066411
      vertex -20.2536137174242 119.360852850496 -5.85566689210465
      vertex -20.2536137174242 120.360852850496 -5.85566689210465
   endloop
endfacet
facet normal 0.345365645137458 -4.94906779129066e-016 -0.938468204660545
   outer loop
      vertex -20.2536137174242 119.360852850496 -5.85566689210465
      vertex -19.3414081947762 120.360852850496 -5.65002361066411
      vertex -19.3414081947762 119.360852850496 -5.65002361066411
   endloop
endfacet
facet normal -0.0907041515619759 5.25182113571289e-016 0.995877882518445
   outer loop
      vertex -20.9034239955327 119.360852850496 1.27886523963968
      vertex -21.8156295181807 120.360852850496 1.07322195819908
      vertex -21.8156295181807 119.360852850496 1.07322195819908
   endloop
endfacet
facet normal -0.0907041515619759 5.25182113571289e-016 0.995877882518445
   outer loop
      vertex -21.8156295181807 120.360852850496 1.07322195819908
      vertex -20.9034239955327 119.360852850496 1.27886523963968
      vertex -20.9034239955327 120.360852850496 1.27886523963968
   endloop
endfacet
facet normal 0.419386841777829 4.78737738370577e-016 0.90780762110902
   outer loop
      vertex -19.0762619277835 119.360852850496 0.96339477839812
      vertex -19.9690767245893 120.360852850496 1.24140523387695
      vertex -19.9690767245893 119.360852850496 1.24140523387695
   endloop
endfacet
facet normal 0.419386841777829 4.78737738370577e-016 0.90780762110902
   outer loop
      vertex -19.9690767245893 120.360852850496 1.24140523387695
      vertex -19.0762619277835 119.360852850496 0.96339477839812
      vertex -19.0762619277835 120.360852850496 0.96339477839812
   endloop
endfacet
facet normal -0.995877882518447 -4.78333728092561e-017 -0.0907041515619537
   outer loop
      vertex -24.1457849223506 120.360852850496 -2.61330596528673
      vertex -23.9401416409101 119.360852850496 -3.52551148793478
      vertex -24.1457849223506 119.360852850496 -2.61330596528673
   endloop
endfacet
facet normal -0.995877882518447 -4.78333728092561e-017 -0.0907041515619537
   outer loop
      vertex -23.9401416409101 119.360852850496 -3.52551148793478
      vertex -24.1457849223506 120.360852850496 -2.61330596528673
      vertex -23.9401416409101 120.360852850496 -3.52551148793478
   endloop
endfacet
facet normal 0.985420128448741 -8.97236429844617e-017 -0.170138680046798
   outer loop
      vertex -17.048712796369 120.360852850496 -2.89784295812159
      vertex -17.0112527906063 119.360852850496 -1.96349568717819
      vertex -17.048712796369 119.360852850496 -2.89784295812159
   endloop
endfacet
facet normal 0.985420128448741 -8.97236429844617e-017 -0.170138680046798
   outer loop
      vertex -17.0112527906063 119.360852850496 -1.96349568717819
      vertex -17.048712796369 120.360852850496 -2.89784295812159
      vertex -17.0112527906063 120.360852850496 -1.96349568717819
   endloop
endfacet
facet normal -0.817103469547013 -2.49247387569636e-016 -0.576491040740647
   outer loop
      vertex -23.5054093220548 120.360852850496 -4.35340996340974
      vertex -23.0518877987356 119.360852850496 -4.84481566579257
      vertex -23.5054093220548 119.360852850496 -4.35340996340974
   endloop
endfacet
facet normal -0.817103469547013 -2.49247387569636e-016 -0.576491040740647
   outer loop
      vertex -23.0518877987356 119.360852850496 -4.84481566579257
      vertex -23.5054093220548 120.360852850496 -4.35340996340974
      vertex -23.0518877987356 120.360852850496 -4.84481566579257
   endloop
endfacet
facet normal 0.576491040740613 -4.30904365561304e-016 -0.817103469547036
   outer loop
      vertex -21.9450319699902 120.360852850496 -0.351540532970036
      vertex -22.3997654963813 119.360852850496 -0.7712170662157
      vertex -22.3997654963813 120.360852850496 -0.7712170662157
   endloop
endfacet
facet normal 0.576491040740613 -4.30904365561304e-016 -0.817103469547036
   outer loop
      vertex -22.3997654963813 119.360852850496 -0.7712170662157
      vertex -21.9450319699902 120.360852850496 -0.351540532970036
      vertex -21.9450319699902 119.360852850496 -0.351540532970036
   endloop
endfacet
facet normal 0.34536564513746 -4.94906779129066e-016 -0.938468204660545
   outer loop
      vertex -21.397172833183 120.360852850496 -0.0638578278972991
      vertex -21.9450319699902 119.360852850496 -0.351540532970036
      vertex -21.9450319699902 120.360852850496 -0.351540532970036
   endloop
endfacet
facet normal 0.34536564513746 -4.94906779129066e-016 -0.938468204660545
   outer loop
      vertex -21.9450319699902 119.360852850496 -0.351540532970036
      vertex -21.397172833183 120.360852850496 -0.0638578278972991
      vertex -21.397172833183 119.360852850496 -0.0638578278972984
   endloop
endfacet
facet normal -0.98542012844874 8.97236429844655e-017 0.170138680046805
   outer loop
      vertex -24.1083249165879 120.360852850496 -1.67895869434342
      vertex -24.1457849223506 119.360852850496 -2.61330596528673
      vertex -24.1083249165879 119.360852850496 -1.67895869434342
   endloop
endfacet
facet normal -0.98542012844874 8.97236429844655e-017 0.170138680046805
   outer loop
      vertex -24.1457849223506 119.360852850496 -2.61330596528673
      vertex -24.1083249165879 120.360852850496 -1.67895869434342
      vertex -24.1457849223506 120.360852850496 -2.61330596528673
   endloop
endfacet
facet normal -0.985420128448738 8.97236429844704e-017 0.170138680046814
   outer loop
      vertex -18.2426811197571 120.360852850496 -2.69169718466481
      vertex -18.4266536389415 119.360852850496 -3.28251448702325
      vertex -18.2426811197571 119.360852850496 -2.6916971846648
   endloop
endfacet
facet normal -0.985420128448738 8.97236429844704e-017 0.170138680046814
   outer loop
      vertex -18.4266536389415 119.360852850496 -3.28251448702325
      vertex -18.2426811197571 120.360852850496 -2.69169718466481
      vertex -18.4266536389415 120.360852850496 -3.28251448702325
   endloop
endfacet
facet normal -0.938468204660539 -1.8213062329442e-016 -0.345365645137476
   outer loop
      vertex -23.9401416409101 120.360852850496 -3.52551148793478
      vertex -23.5054093220548 119.360852850496 -4.35340996340974
      vertex -23.9401416409101 119.360852850496 -3.52551148793478
   endloop
endfacet
facet normal -0.938468204660539 -1.8213062329442e-016 -0.345365645137476
   outer loop
      vertex -23.5054093220548 119.360852850496 -4.35340996340974
      vertex -23.9401416409101 120.360852850496 -3.52551148793478
      vertex -23.5054093220548 120.360852850496 -4.35340996340974
   endloop
endfacet
facet normal 0.768329524613744 -3.37536531583681e-016 -0.64005448331124
   outer loop
      vertex -17.8263382039359 120.360852850496 -4.58109622463976
      vertex -17.3267232518478 119.360852850496 -3.79065775492741
      vertex -17.8263382039359 119.360852850496 -4.58109622463976
   endloop
endfacet
facet normal 0.768329524613744 -3.37536531583681e-016 -0.64005448331124
   outer loop
      vertex -17.3267232518478 119.360852850496 -3.79065775492741
      vertex -17.8263382039359 120.360852850496 -4.58109622463976
      vertex -17.3267232518478 120.360852850496 -3.79065775492741
   endloop
endfacet
facet normal -0.640054483311262 -4.05183136144593e-016 -0.768329524613726
   outer loop
      vertex -19.0613350964617 120.360852850496 -0.467154186329552
      vertex -18.641658563216 119.360852850496 -0.921887712720695
      vertex -19.0613350964617 119.360852850496 -0.467154186329552
   endloop
endfacet
facet normal -0.640054483311262 -4.05183136144593e-016 -0.768329524613726
   outer loop
      vertex -18.641658563216 119.360852850496 -0.921887712720695
      vertex -19.0613350964617 120.360852850496 -0.467154186329552
      vertex -18.641658563216 120.360852850496 -0.921887712720695
   endloop
endfacet
facet normal -0.640054483311262 -4.05183136144593e-016 -0.768329524613726
   outer loop
      vertex -19.0613350964617 120.360852850496 -0.467154186329552
      vertex -19.5844051956877 119.360852850496 -0.136535608695474
      vertex -19.5844051956877 120.360852850496 -0.136535608695474
   endloop
endfacet
facet normal -0.640054483311262 -4.05183136144593e-016 -0.768329524613726
   outer loop
      vertex -19.5844051956877 119.360852850496 -0.136535608695474
      vertex -19.0613350964617 120.360852850496 -0.467154186329552
      vertex -19.0613350964617 119.360852850496 -0.467154186329552
   endloop
endfacet
facet normal -0.576491040740616 4.30904365561304e-016 0.817103469547035
   outer loop
      vertex -19.2120057429667 119.360852850496 -4.22526111949491
      vertex -19.7598648797739 120.360852850496 -4.51294382456769
      vertex -19.7598648797739 119.360852850496 -4.51294382456769
   endloop
endfacet
facet normal -0.576491040740616 4.30904365561304e-016 0.817103469547035
   outer loop
      vertex -19.7598648797739 120.360852850496 -4.51294382456769
      vertex -19.2120057429667 119.360852850496 -4.22526111949491
      vertex -19.2120057429667 120.360852850496 -4.22526111949491
   endloop
endfacet
facet normal -0.938468204660539 -1.82130623294419e-016 -0.345365645137475
   outer loop
      vertex -18.3539758581433 120.360852850496 -1.46974684952792
      vertex -18.2178920821759 119.360852850496 -2.07339590195801
      vertex -18.3539758581433 119.360852850496 -1.46974684952792
   endloop
endfacet
facet normal -0.938468204660539 -1.82130623294419e-016 -0.345365645137475
   outer loop
      vertex -18.2178920821759 119.360852850496 -2.07339590195801
      vertex -18.3539758581433 120.360852850496 -1.46974684952792
      vertex -18.2178920821759 120.360852850496 -2.07339590195801
   endloop
endfacet
facet normal -0.907807621109009 2.21166140784135e-016 0.419386841777853
   outer loop
      vertex -18.4266536389415 120.360852850496 -3.28251448702325
      vertex -18.7572722165756 119.360852850496 -3.80558458624929
      vertex -18.4266536389415 119.360852850496 -3.28251448702325
   endloop
endfacet
facet normal -0.907807621109009 2.21166140784135e-016 0.419386841777853
   outer loop
      vertex -18.7572722165756 119.360852850496 -3.80558458624929
      vertex -18.4266536389415 120.360852850496 -3.28251448702325
      vertex -18.7572722165756 120.360852850496 -3.80558458624929
   endloop
endfacet
facet normal -0.419386841777853 -4.78737738370571e-016 -0.907807621109009
   outer loop
      vertex -19.5844051956877 120.360852850496 -0.136535608695474
      vertex -20.1752224980461 119.360852850496 0.0474369104889044
      vertex -20.1752224980461 120.360852850496 0.0474369104889037
   endloop
endfacet
facet normal -0.419386841777853 -4.78737738370571e-016 -0.907807621109009
   outer loop
      vertex -20.1752224980461 119.360852850496 0.0474369104889044
      vertex -19.5844051956877 120.360852850496 -0.136535608695474
      vertex -19.5844051956877 119.360852850496 -0.136535608695474
   endloop
endfacet
facet normal 0.938468204660538 1.82130623294421e-016 0.345365645137478
   outer loop
      vertex -22.8030618548136 120.360852850496 -3.10705480293704
      vertex -22.939145630781 119.360852850496 -2.50340575050698
      vertex -22.8030618548136 119.360852850496 -3.10705480293704
   endloop
endfacet
facet normal 0.938468204660538 1.82130623294421e-016 0.345365645137478
   outer loop
      vertex -22.939145630781 119.360852850496 -2.50340575050698
      vertex -22.8030618548136 120.360852850496 -3.10705480293704
      vertex -22.939145630781 120.360852850496 -2.50340575050698
   endloop
endfacet
facet normal 0.995877882518448 4.78333728092522e-017 0.0907041515619462
   outer loop
      vertex -22.939145630781 120.360852850496 -2.50340575050698
      vertex -22.9143565931998 119.360852850496 -1.88510446780012
      vertex -22.939145630781 119.360852850496 -2.50340575050698
   endloop
endfacet
facet normal 0.995877882518448 4.78333728092522e-017 0.0907041515619462
   outer loop
      vertex -22.9143565931998 119.360852850496 -1.88510446780012
      vertex -22.939145630781 120.360852850496 -2.50340575050698
      vertex -22.9143565931998 120.360852850496 -1.88510446780012
   endloop
endfacet
facet normal 0.170138680046875 5.19667154878107e-016 0.985420128448728
   outer loop
      vertex -20.9818152149108 119.360852850496 -4.6242385629538
      vertex -21.5726325172692 120.360852850496 -4.4402660437694
      vertex -21.5726325172692 119.360852850496 -4.4402660437694
   endloop
endfacet
facet normal 0.170138680046875 5.19667154878107e-016 0.985420128448728
   outer loop
      vertex -21.5726325172692 120.360852850496 -4.4402660437694
      vertex -20.9818152149108 119.360852850496 -4.6242385629538
      vertex -20.9818152149108 120.360852850496 -4.6242385629538
   endloop
endfacet
facet normal -0.995877882518448 -4.78333728092535e-017 -0.0907041515619486
   outer loop
      vertex -18.2178920821759 120.360852850496 -2.07339590195801
      vertex -18.2426811197571 119.360852850496 -2.6916971846648
      vertex -18.2178920821759 119.360852850496 -2.07339590195801
   endloop
endfacet
facet normal -0.995877882518448 -4.78333728092535e-017 -0.0907041515619486
   outer loop
      vertex -18.2426811197571 119.360852850496 -2.6916971846648
      vertex -18.2178920821759 120.360852850496 -2.07339590195801
      vertex -18.2426811197571 120.360852850496 -2.69169718466481
   endloop
endfacet
facet normal -0.768329524613734 3.37536531583687e-016 0.640054483311251
   outer loop
      vertex -23.3306995090209 120.360852850496 0.00429457217477243
      vertex -23.830314461109 119.360852850496 -0.78614389753751
      vertex -23.3306995090209 119.360852850496 0.00429457217477314
   endloop
endfacet
facet normal -0.768329524613734 3.37536531583687e-016 0.640054483311251
   outer loop
      vertex -23.830314461109 119.360852850496 -0.78614389753751
      vertex -23.3306995090209 120.360852850496 0.00429457217477243
      vertex -23.830314461109 120.360852850496 -0.78614389753751
   endloop
endfacet
facet normal -0.170138680046761 -5.19667154878117e-016 -0.985420128448747
   outer loop
      vertex -20.1752224980461 120.360852850496 0.0474369104889037
      vertex -20.7935237807529 119.360852850496 0.0722259480700288
      vertex -20.7935237807529 120.360852850496 0.0722259480700281
   endloop
endfacet
facet normal -0.170138680046761 -5.19667154878117e-016 -0.985420128448747
   outer loop
      vertex -20.7935237807529 119.360852850496 0.0722259480700288
      vertex -20.1752224980461 120.360852850496 0.0474369104889037
      vertex -20.1752224980461 119.360852850496 0.0474369104889044
   endloop
endfacet
facet normal -0.345365645137516 4.94906779129055e-016 0.938468204660524
   outer loop
      vertex -19.7598648797739 119.360852850496 -4.51294382456769
      vertex -20.3635139322039 120.360852850496 -4.64902760053504
      vertex -20.3635139322039 119.360852850496 -4.64902760053504
   endloop
endfacet
facet normal -0.345365645137516 4.94906779129055e-016 0.938468204660524
   outer loop
      vertex -20.3635139322039 120.360852850496 -4.64902760053504
      vertex -19.7598648797739 119.360852850496 -4.51294382456769
      vertex -19.7598648797739 120.360852850496 -4.51294382456769
   endloop
endfacet
facet normal -0.768329524613718 3.37536531583697e-016 0.640054483311271
   outer loop
      vertex -18.7572722165756 119.360852850496 -3.80558458624929
      vertex -19.2120057429667 120.360852850496 -4.22526111949491
      vertex -19.2120057429667 119.360852850496 -4.22526111949491
   endloop
endfacet
facet normal -0.768329524613718 3.37536531583697e-016 0.640054483311271
   outer loop
      vertex -19.2120057429667 120.360852850496 -4.22526111949491
      vertex -18.7572722165756 119.360852850496 -3.80558458624929
      vertex -18.7572722165756 120.360852850496 -3.80558458624929
   endloop
endfacet
facet normal -0.817103469547053 -3.04015972787153e-016 -0.57649104074059
   outer loop
      vertex -18.641658563216 120.360852850496 -0.921887712720695
      vertex -18.3539758581433 119.360852850496 -1.46974684952792
      vertex -18.641658563216 119.360852850496 -0.921887712720695
   endloop
endfacet
facet normal -0.817103469547053 -3.04015972787153e-016 -0.57649104074059
   outer loop
      vertex -18.3539758581433 119.360852850496 -1.46974684952792
      vertex -18.641658563216 120.360852850496 -0.921887712720695
      vertex -18.3539758581433 120.360852850496 -1.46974684952792
   endloop
endfacet
facet normal 0.0907041515619853 -5.25182113571289e-016 -0.995877882518444
   outer loop
      vertex -20.7935237807529 120.360852850496 0.0722259480700281
      vertex -21.397172833183 119.360852850496 -0.0638578278972984
      vertex -21.397172833183 120.360852850496 -0.0638578278972991
   endloop
endfacet
facet normal 0.0907041515619853 -5.25182113571289e-016 -0.995877882518444
   outer loop
      vertex -21.397172833183 119.360852850496 -0.0638578278972984
      vertex -20.7935237807529 120.360852850496 0.0722259480700281
      vertex -20.7935237807529 119.360852850496 0.0722259480700288
   endloop
endfacet
facet normal 0.995877882518446 4.78333728092622e-017 0.0907041515619653
   outer loop
      vertex -17.0112527906063 120.360852850496 -1.96349568717819
      vertex -17.2168960720468 119.360852850496 -1.05129016453028
      vertex -17.0112527906063 119.360852850496 -1.96349568717819
   endloop
endfacet
facet normal 0.995877882518446 4.78333728092622e-017 0.0907041515619653
   outer loop
      vertex -17.2168960720468 119.360852850496 -1.05129016453028
      vertex -17.0112527906063 120.360852850496 -1.96349568717819
      vertex -17.2168960720468 120.360852850496 -1.05129016453028
   endloop
endfacet
facet normal 0.640054483311229 4.05183136144608e-016 0.768329524613753
   outer loop
      vertex -22.0957026164953 120.360852850496 -4.10964746613535
      vertex -22.5153791497409 119.360852850496 -3.6549139397442
      vertex -22.0957026164953 119.360852850496 -4.10964746613535
   endloop
endfacet
facet normal 0.640054483311229 4.05183136144608e-016 0.768329524613753
   outer loop
      vertex -22.5153791497409 119.360852850496 -3.6549139397442
      vertex -22.0957026164953 120.360852850496 -4.10964746613535
      vertex -22.5153791497409 120.360852850496 -3.65491393974421
   endloop
endfacet
facet normal -0.345365645137477 4.94906779129063e-016 0.938468204660539
   outer loop
      vertex -21.8156295181807 119.360852850496 1.07322195819908
      vertex -22.6435279936556 120.360852850496 0.638489639343872
      vertex -22.6435279936556 119.360852850496 0.638489639343872
   endloop
endfacet
facet normal -0.345365645137477 4.94906779129063e-016 0.938468204660539
   outer loop
      vertex -22.6435279936556 120.360852850496 0.638489639343872
      vertex -21.8156295181807 119.360852850496 1.07322195819908
      vertex -21.8156295181807 120.360852850496 1.07322195819908
   endloop
endfacet
facet normal 0.817103469547043 3.0401597278716e-016 0.576491040740604
   outer loop
      vertex -22.5153791497409 120.360852850496 -3.65491393974421
      vertex -22.8030618548136 119.360852850496 -3.10705480293704
      vertex -22.5153791497409 119.360852850496 -3.6549139397442
   endloop
endfacet
facet normal 0.817103469547043 3.0401597278716e-016 0.576491040740604
   outer loop
      vertex -22.8030618548136 119.360852850496 -3.10705480293704
      vertex -22.5153791497409 120.360852850496 -3.65491393974421
      vertex -22.8030618548136 120.360852850496 -3.10705480293704
   endloop
endfacet
facet normal 0.419386841777841 4.78737738370574e-016 0.907807621109015
   outer loop
      vertex -21.5726325172692 119.360852850496 -4.4402660437694
      vertex -22.0957026164953 120.360852850496 -4.10964746613535
      vertex -22.0957026164953 119.360852850496 -4.10964746613535
   endloop
endfacet
facet normal 0.419386841777841 4.78737738370574e-016 0.907807621109015
   outer loop
      vertex -22.0957026164953 120.360852850496 -4.10964746613535
      vertex -21.5726325172692 119.360852850496 -4.4402660437694
      vertex -21.5726325172692 120.360852850496 -4.4402660437694
   endloop
endfacet
facet normal -0.0907041515619239 5.25182113571292e-016 0.99587788251845
   outer loop
      vertex -20.3635139322039 119.360852850496 -4.64902760053504
      vertex -20.9818152149108 120.360852850496 -4.6242385629538
      vertex -20.9818152149108 119.360852850496 -4.6242385629538
   endloop
endfacet
facet normal -0.0907041515619239 5.25182113571292e-016 0.99587788251845
   outer loop
      vertex -20.9818152149108 120.360852850496 -4.6242385629538
      vertex -20.3635139322039 119.360852850496 -4.64902760053504
      vertex -20.3635139322039 120.360852850496 -4.64902760053504
   endloop
endfacet
facet normal 0.0 -1.0 0.0
   outer loop
      vertex -19.3414081947762 119.360852850496 -5.65002361066411
      vertex -21.1879609883676 119.360852850496 -5.81820688634201
      vertex -20.2536137174242 119.360852850496 -5.85566689210465
   endloop
endfacet
facet normal 0.0 -1.0 0.0
   outer loop
      vertex -21.1879609883676 119.360852850496 -5.81820688634201
      vertex -19.3414081947762 119.360852850496 -5.65002361066411
      vertex -21.4900005681409 119.360852850496 -5.72415584524612
   endloop
endfacet
facet normal 0.0 -1.0 0.0
   outer loop
      vertex -21.4900005681409 119.360852850496 -5.72415584524612
      vertex -19.3414081947762 119.360852850496 -5.65002361066411
      vertex -21.4900005681409 119.360852850496 -4.84481566579257
   endloop
endfacet
facet normal 0.0 -1.0 0.0
   outer loop
      vertex -21.4900005681409 119.360852850496 -4.84481566579257
      vertex -19.3414081947762 119.360852850496 -5.65002361066411
      vertex -18.5135097193013 119.360852850496 -5.21529129180886
   endloop
endfacet
facet normal 0.0 -1.0 0.0
   outer loop
      vertex -21.4900005681409 119.360852850496 -4.84481566579257
      vertex -18.5135097193013 119.360852850496 -5.21529129180886
      vertex -17.8263382039359 119.360852850496 -4.58109622463976
   endloop
endfacet
facet normal 0.0 -1.0 0.0
   outer loop
      vertex -21.4900005681409 119.360852850496 -4.84481566579257
      vertex -17.8263382039359 119.360852850496 -4.58109622463976
      vertex -23.0518877987356 119.360852850496 -4.84481566579257
   endloop
endfacet
facet normal 0.0 -1.0 0.0
   outer loop
      vertex -23.0518877987356 119.360852850496 -4.84481566579257
      vertex -17.8263382039359 119.360852850496 -4.58109622463976
      vertex -20.3635139322039 119.360852850496 -4.64902760053504
   endloop
endfacet
facet normal 0.0 -1.0 0.0
   outer loop
      vertex -20.3635139322039 119.360852850496 -4.64902760053504
      vertex -17.8263382039359 119.360852850496 -4.58109622463976
      vertex -19.7598648797739 119.360852850496 -4.51294382456769
   endloop
endfacet
facet normal 0.0 -1.0 0.0
   outer loop
      vertex -19.7598648797739 119.360852850496 -4.51294382456769
      vertex -17.8263382039359 119.360852850496 -4.58109622463976
      vertex -17.3267232518478 119.360852850496 -3.79065775492741
   endloop
endfacet
facet normal 0.0 -1.0 0.0
   outer loop
      vertex -19.7598648797739 119.360852850496 -4.51294382456769
      vertex -17.3267232518478 119.360852850496 -3.79065775492741
      vertex -19.2120057429667 119.360852850496 -4.22526111949491
   endloop
endfacet
facet normal 0.0 -1.0 0.0
   outer loop
      vertex -19.2120057429667 119.360852850496 -4.22526111949491
      vertex -17.3267232518478 119.360852850496 -3.79065775492741
      vertex -18.7572722165756 119.360852850496 -3.80558458624929
   endloop
endfacet
facet normal 0.0 -1.0 0.0
   outer loop
      vertex -18.7572722165756 119.360852850496 -3.80558458624929
      vertex -17.3267232518478 119.360852850496 -3.79065775492741
      vertex -18.4266536389415 119.360852850496 -3.28251448702325
   endloop
endfacet
facet normal 0.0 -1.0 0.0
   outer loop
      vertex -18.4266536389415 119.360852850496 -3.28251448702325
      vertex -17.3267232518478 119.360852850496 -3.79065775492741
      vertex -17.048712796369 119.360852850496 -2.89784295812159
   endloop
endfacet
facet normal 0.0 -1.0 0.0
   outer loop
      vertex -18.4266536389415 119.360852850496 -3.28251448702325
      vertex -17.048712796369 119.360852850496 -2.89784295812159
      vertex -18.2426811197571 119.360852850496 -2.6916971846648
   endloop
endfacet
facet normal 0.0 -1.0 0.0
   outer loop
      vertex -18.2426811197571 119.360852850496 -2.6916971846648
      vertex -17.048712796369 119.360852850496 -2.89784295812159
      vertex -17.0112527906063 119.360852850496 -1.96349568717819
   endloop
endfacet
facet normal 0.0 -1.0 0.0
   outer loop
      vertex -18.2426811197571 119.360852850496 -2.6916971846648
      vertex -17.0112527906063 119.360852850496 -1.96349568717819
      vertex -18.2178920821759 119.360852850496 -2.07339590195801
   endloop
endfacet
facet normal 0.0 -1.0 0.0
   outer loop
      vertex -18.2178920821759 119.360852850496 -2.07339590195801
      vertex -17.0112527906063 119.360852850496 -1.96349568717819
      vertex -18.3539758581433 119.360852850496 -1.46974684952792
   endloop
endfacet
facet normal 0.0 -1.0 0.0
   outer loop
      vertex -18.3539758581433 119.360852850496 -1.46974684952792
      vertex -17.0112527906063 119.360852850496 -1.96349568717819
      vertex -17.2168960720468 119.360852850496 -1.05129016453028
   endloop
endfacet
facet normal 0.0 -1.0 0.0
   outer loop
      vertex -18.3539758581433 119.360852850496 -1.46974684952792
      vertex -17.2168960720468 119.360852850496 -1.05129016453028
      vertex -18.641658563216 119.360852850496 -0.921887712720695
   endloop
endfacet
facet normal 0.0 -1.0 0.0
   outer loop
      vertex -18.641658563216 119.360852850496 -0.921887712720695
      vertex -17.2168960720468 119.360852850496 -1.05129016453028
      vertex -17.6516283909021 119.360852850496 -0.223391689055293
   endloop
endfacet
facet normal 0.0 -1.0 0.0
   outer loop
      vertex -18.641658563216 119.360852850496 -0.921887712720695
      vertex -17.6516283909021 119.360852850496 -0.223391689055293
      vertex -19.0613350964617 119.360852850496 -0.467154186329552
   endloop
endfacet
facet normal 0.0 -1.0 0.0
   outer loop
      vertex -19.0613350964617 119.360852850496 -0.467154186329552
      vertex -17.6516283909021 119.360852850496 -0.223391689055293
      vertex -19.5844051956877 119.360852850496 -0.136535608695474
   endloop
endfacet
facet normal 0.0 -1.0 0.0
   outer loop
      vertex -19.5844051956877 119.360852850496 -0.136535608695474
      vertex -17.6516283909021 119.360852850496 -0.223391689055293
      vertex -18.2858234580712 119.360852850496 0.463779826310038
   endloop
endfacet
facet normal 0.0 -1.0 0.0
   outer loop
      vertex -19.5844051956877 119.360852850496 -0.136535608695474
      vertex -18.2858234580712 119.360852850496 0.463779826310038
      vertex -20.1752224980461 119.360852850496 0.0474369104889044
   endloop
endfacet
facet normal 0.0 -1.0 0.0
   outer loop
      vertex -20.1752224980461 119.360852850496 0.0474369104889044
      vertex -18.2858234580712 119.360852850496 0.463779826310038
      vertex -20.7935237807529 119.360852850496 0.0722259480700288
   endloop
endfacet
facet normal 0.0 -1.0 0.0
   outer loop
      vertex -23.0518877987356 119.360852850496 -4.84481566579257
      vertex -20.9818152149108 119.360852850496 -4.6242385629538
      vertex -23.5054093220548 119.360852850496 -4.35340996340974
   endloop
endfacet
facet normal 0.0 -1.0 0.0
   outer loop
      vertex -20.9818152149108 119.360852850496 -4.6242385629538
      vertex -23.0518877987356 119.360852850496 -4.84481566579257
      vertex -20.3635139322039 119.360852850496 -4.64902760053504
   endloop
endfacet
facet normal 0.0 -1.0 0.0
   outer loop
      vertex -23.5054093220548 119.360852850496 -4.35340996340974
      vertex -20.9818152149108 119.360852850496 -4.6242385629538
      vertex -21.5726325172692 119.360852850496 -4.4402660437694
   endloop
endfacet
facet normal 0.0 -1.0 0.0
   outer loop
      vertex -23.5054093220548 119.360852850496 -4.35340996340974
      vertex -21.5726325172692 119.360852850496 -4.4402660437694
      vertex -22.0957026164953 119.360852850496 -4.10964746613535
   endloop
endfacet
facet normal 0.0 -1.0 0.0
   outer loop
      vertex -23.5054093220548 119.360852850496 -4.35340996340974
      vertex -22.0957026164953 119.360852850496 -4.10964746613535
      vertex -23.9401416409101 119.360852850496 -3.52551148793478
   endloop
endfacet
facet normal 0.0 -1.0 0.0
   outer loop
      vertex -23.9401416409101 119.360852850496 -3.52551148793478
      vertex -22.0957026164953 119.360852850496 -4.10964746613535
      vertex -22.5153791497409 119.360852850496 -3.6549139397442
   endloop
endfacet
facet normal 0.0 -1.0 0.0
   outer loop
      vertex -23.9401416409101 119.360852850496 -3.52551148793478
      vertex -22.5153791497409 119.360852850496 -3.6549139397442
      vertex -22.8030618548136 119.360852850496 -3.10705480293704
   endloop
endfacet
facet normal 0.0 -1.0 0.0
   outer loop
      vertex -23.9401416409101 119.360852850496 -3.52551148793478
      vertex -22.8030618548136 119.360852850496 -3.10705480293704
      vertex -24.1457849223506 119.360852850496 -2.61330596528673
   endloop
endfacet
facet normal 0.0 -1.0 0.0
   outer loop
      vertex -24.1457849223506 119.360852850496 -2.61330596528673
      vertex -22.8030618548136 119.360852850496 -3.10705480293704
      vertex -22.939145630781 119.360852850496 -2.50340575050698
   endloop
endfacet
facet normal 0.0 -1.0 0.0
   outer loop
      vertex -24.1457849223506 119.360852850496 -2.61330596528673
      vertex -22.939145630781 119.360852850496 -2.50340575050698
      vertex -24.1083249165879 119.360852850496 -1.67895869434342
   endloop
endfacet
facet normal 0.0 -1.0 0.0
   outer loop
      vertex -24.1083249165879 119.360852850496 -1.67895869434342
      vertex -22.939145630781 119.360852850496 -2.50340575050698
      vertex -22.9143565931998 119.360852850496 -1.88510446780012
   endloop
endfacet
facet normal 0.0 -1.0 0.0
   outer loop
      vertex -24.1083249165879 119.360852850496 -1.67895869434342
      vertex -22.9143565931998 119.360852850496 -1.88510446780012
      vertex -22.7303840740154 119.360852850496 -1.29428716544169
   endloop
endfacet
facet normal 0.0 -1.0 0.0
   outer loop
      vertex -24.1083249165879 119.360852850496 -1.67895869434342
      vertex -22.7303840740154 119.360852850496 -1.29428716544169
      vertex -23.830314461109 119.360852850496 -0.78614389753751
   endloop
endfacet
facet normal 0.0 -1.0 0.0
   outer loop
      vertex -23.830314461109 119.360852850496 -0.78614389753751
      vertex -22.7303840740154 119.360852850496 -1.29428716544169
      vertex -22.3997654963813 119.360852850496 -0.7712170662157
   endloop
endfacet
facet normal 0.0 -1.0 0.0
   outer loop
      vertex -23.830314461109 119.360852850496 -0.78614389753751
      vertex -22.3997654963813 119.360852850496 -0.7712170662157
      vertex -23.3306995090209 119.360852850496 0.00429457217477314
   endloop
endfacet
facet normal 0.0 -1.0 0.0
   outer loop
      vertex -23.3306995090209 119.360852850496 0.00429457217477314
      vertex -22.3997654963813 119.360852850496 -0.7712170662157
      vertex -21.9450319699902 119.360852850496 -0.351540532970036
   endloop
endfacet
facet normal 0.0 -1.0 0.0
   outer loop
      vertex -23.3306995090209 119.360852850496 0.00429457217477314
      vertex -21.9450319699902 119.360852850496 -0.351540532970036
      vertex -21.397172833183 119.360852850496 -0.0638578278972984
   endloop
endfacet
facet normal 0.0 -1.0 0.0
   outer loop
      vertex -23.3306995090209 119.360852850496 0.00429457217477314
      vertex -21.397172833183 119.360852850496 -0.0638578278972984
      vertex -20.7935237807529 119.360852850496 0.0722259480700288
   endloop
endfacet
facet normal 0.0 -1.0 0.0
   outer loop
      vertex -23.3306995090209 119.360852850496 0.00429457217477314
      vertex -20.7935237807529 119.360852850496 0.0722259480700288
      vertex -22.6435279936556 119.360852850496 0.638489639343872
   endloop
endfacet
facet normal 0.0 -1.0 0.0
   outer loop
      vertex -22.6435279936556 119.360852850496 0.638489639343872
      vertex -20.7935237807529 119.360852850496 0.0722259480700288
      vertex -18.2858234580712 119.360852850496 0.463779826310038
   endloop
endfacet
facet normal 0.0 -1.0 0.0
   outer loop
      vertex -22.6435279936556 119.360852850496 0.638489639343872
      vertex -18.2858234580712 119.360852850496 0.463779826310038
      vertex -19.0762619277835 119.360852850496 0.96339477839812
   endloop
endfacet
facet normal 0.0 -1.0 0.0
   outer loop
      vertex -22.6435279936556 119.360852850496 0.638489639343872
      vertex -19.0762619277835 119.360852850496 0.96339477839812
      vertex -21.8156295181807 119.360852850496 1.07322195819908
   endloop
endfacet
facet normal 0.0 -1.0 0.0
   outer loop
      vertex -21.8156295181807 119.360852850496 1.07322195819908
      vertex -19.0762619277835 119.360852850496 0.96339477839812
      vertex -19.9690767245893 119.360852850496 1.24140523387695
   endloop
endfacet
facet normal 0.0 -1.0 0.0
   outer loop
      vertex -21.8156295181807 119.360852850496 1.07322195819908
      vertex -19.9690767245893 119.360852850496 1.24140523387695
      vertex -20.9034239955327 119.360852850496 1.27886523963968
   endloop
endfacet
endsolid colgante
